<?xml version="1.0" standalone="no"?>
<!DOCTYPE svg PUBLIC "-//W3C//DTD SVG 20010904//EN"
 "http://www.w3.org/TR/2001/REC-SVG-20010904/DTD/svg10.dtd">
<svg version="1.0" xmlns="http://www.w3.org/2000/svg"
 width="1280.000000pt" height="886.000000pt" viewBox="0 0 1280.000000 886.000000"
 preserveAspectRatio="xMidYMid meet">
<metadata>
Created by potrace 1.15, written by Peter Selinger 2001-2017
</metadata>
<g transform="translate(0.000000,886.000000) scale(0.100000,-0.100000)"
fill="#000000" stroke="none">
<path d="M182 8835 c14 -31 9 -37 -99 -122 -62 -49 -83 -72 -83 -90 0 -12 3
-23 6 -23 7 0 62 41 151 112 39 32 75 58 79 58 4 0 30 -19 58 -43 28 -24 122
-96 209 -161 86 -65 157 -122 157 -128 0 -5 -5 -18 -10 -28 -7 -13 -7 -28 1
-47 13 -34 10 -36 -231 -220 -91 -69 -170 -129 -175 -134 -6 -4 -57 28 -120
77 -61 46 -113 84 -117 84 -5 0 -8 -11 -8 -24 0 -18 22 -40 96 -97 80 -61 94
-76 89 -93 -9 -27 -9 -46 0 -72 6 -19 -8 -33 -89 -99 -75 -61 -96 -83 -96
-102 0 -25 0 -25 28 -8 15 10 66 49 113 87 48 37 90 68 94 68 3 0 43 -29 88
-64 45 -36 138 -107 207 -159 105 -79 125 -98 122 -118 -5 -40 -4 -53 3 -75 5
-17 -9 -33 -87 -95 -140 -112 -324 -249 -334 -249 -5 0 -34 19 -64 43 -30 24
-81 62 -113 85 l-57 43 0 -28 c0 -24 15 -40 96 -102 82 -62 95 -76 89 -95 -9
-26 -9 -45 0 -72 5 -17 -10 -33 -89 -98 -74 -60 -96 -84 -96 -102 0 -32 6 -28
135 74 l100 80 39 -32 c21 -17 115 -90 210 -162 128 -98 170 -136 168 -150 -5
-36 -4 -59 2 -79 6 -17 -6 -31 -61 -75 -156 -126 -356 -271 -367 -266 -6 2
-58 41 -116 85 -101 77 -105 80 -108 55 -3 -18 5 -31 25 -47 15 -12 57 -45 93
-73 65 -51 65 -50 59 -109 -1 -5 2 -21 5 -35 6 -23 -2 -33 -88 -100 -79 -62
-95 -80 -95 -103 l-1 -28 30 21 c16 12 69 52 117 90 l88 69 30 -24 c16 -14
107 -83 201 -155 94 -71 176 -136 183 -144 8 -10 9 -21 1 -40 -7 -19 -7 -33 1
-47 14 -27 13 -29 -56 -86 -62 -51 -330 -254 -352 -267 -8 -4 -57 27 -125 80
-101 77 -113 84 -116 65 -5 -29 3 -37 103 -112 76 -57 85 -67 79 -89 -8 -31
-8 -39 0 -70 6 -22 -3 -33 -88 -100 -80 -62 -96 -80 -96 -103 l0 -28 57 43
c32 23 84 64 116 90 58 48 59 48 82 31 12 -10 102 -79 200 -153 97 -74 184
-140 192 -147 13 -10 14 -17 4 -42 -10 -23 -10 -34 0 -52 11 -21 8 -27 -37
-67 -43 -38 -338 -265 -370 -284 -7 -5 -46 18 -101 60 -48 38 -100 77 -115 86
l-28 18 0 -26 c0 -20 18 -39 92 -97 93 -72 94 -73 87 -129 -2 -8 1 -25 5 -37
6 -19 -6 -33 -88 -100 -69 -56 -96 -84 -96 -100 0 -13 3 -23 7 -23 8 0 104 72
171 128 47 40 54 43 71 31 10 -8 107 -81 216 -164 167 -127 195 -153 189 -170
-6 -20 -7 -43 -2 -79 2 -13 -16 -35 -57 -69 -48 -39 -263 -204 -345 -264 -13
-9 -35 3 -125 72 -61 46 -113 84 -117 85 -5 0 -8 -11 -8 -24 0 -19 21 -40 96
-97 80 -61 94 -76 89 -93 -9 -27 -9 -46 0 -72 6 -18 -8 -34 -89 -100 -71 -57
-96 -84 -96 -101 0 -13 3 -23 6 -23 7 0 54 36 155 117 36 29 69 53 73 53 4 0
40 -26 79 -58 40 -31 134 -104 210 -162 118 -88 137 -107 132 -124 -9 -27 -9
-46 0 -72 7 -23 -43 -67 -301 -261 l-121 -91 -116 90 c-114 87 -117 89 -117
61 0 -25 14 -40 96 -102 82 -63 95 -76 89 -95 -9 -27 -9 -45 0 -72 6 -18 -8
-33 -89 -99 -75 -60 -96 -82 -96 -101 0 -18 4 -23 12 -18 24 14 113 81 163
123 27 22 53 41 58 41 5 0 50 -33 102 -73 51 -39 145 -112 210 -161 100 -76
116 -91 110 -110 -9 -27 -9 -45 0 -72 5 -18 -8 -32 -82 -91 -165 -130 -329
-253 -339 -253 -5 0 -58 38 -119 85 -105 81 -110 84 -113 59 -3 -18 4 -31 25
-47 15 -12 57 -45 93 -73 65 -51 65 -50 59 -109 -1 -5 2 -22 5 -36 7 -24 -1
-32 -88 -100 -79 -62 -95 -79 -95 -102 l-1 -28 57 41 c32 22 85 62 118 89 l60
48 111 -86 c61 -47 156 -120 210 -162 72 -55 98 -81 96 -95 -5 -36 -4 -59 2
-79 6 -17 -7 -32 -76 -86 -129 -102 -337 -259 -343 -259 -3 0 -56 38 -118 85
-109 84 -112 85 -115 59 -2 -17 3 -31 15 -39 10 -7 53 -41 96 -75 67 -52 77
-64 71 -83 -9 -26 -9 -34 0 -67 6 -22 -3 -33 -88 -100 -79 -62 -95 -80 -95
-103 l-1 -28 30 21 c16 12 69 52 117 90 85 67 88 68 109 52 12 -9 93 -71 180
-137 86 -66 172 -132 189 -148 25 -20 43 -27 75 -27 39 0 56 10 195 115 84 63
180 137 215 165 l63 50 41 -33 c22 -19 109 -85 191 -147 83 -62 159 -121 171
-131 13 -12 35 -19 62 -19 38 0 57 11 205 122 89 67 186 142 214 166 l53 44
67 -54 c38 -30 134 -105 215 -166 198 -150 177 -151 396 15 92 69 188 144 215
166 l47 39 48 -40 c26 -21 122 -96 214 -166 212 -160 205 -159 349 -49 56 43
152 117 213 165 93 72 114 84 128 75 9 -7 106 -81 215 -164 254 -196 230 -193
420 -48 76 59 171 132 211 163 40 31 77 56 83 54 5 -1 47 -31 92 -67 45 -36
138 -108 206 -160 117 -89 128 -95 172 -95 28 0 51 6 58 14 7 8 91 74 188 148
96 73 185 141 197 150 21 16 24 15 102 -46 43 -34 139 -108 212 -164 180 -138
167 -138 367 13 84 63 180 137 215 165 l63 50 41 -33 c22 -19 109 -85 191
-147 83 -62 159 -121 171 -131 13 -12 35 -19 62 -19 38 0 57 11 205 122 89 67
186 142 214 166 l53 44 67 -54 c38 -30 134 -105 215 -166 198 -150 177 -151
396 15 92 69 188 144 215 166 l47 39 53 -44 c28 -24 125 -99 214 -166 207
-155 200 -154 344 -44 56 42 152 116 213 164 93 72 114 84 128 75 9 -7 106
-81 215 -164 254 -196 229 -193 420 -48 76 59 171 132 211 163 40 31 77 56 83
54 5 -1 47 -31 92 -67 45 -36 138 -108 206 -160 117 -89 128 -95 172 -95 28 0
51 6 58 14 7 8 91 74 188 148 96 73 185 141 197 150 22 17 24 16 82 -31 32
-26 123 -95 201 -155 78 -59 145 -111 148 -116 4 -6 27 -10 52 -10 43 0 55 7
198 115 84 63 180 137 215 165 l63 50 41 -33 c22 -19 100 -78 171 -132 72 -54
136 -102 143 -108 9 -7 12 -2 12 20 0 24 -11 37 -67 79 -38 27 -112 84 -165
126 -96 76 -97 77 -85 107 8 22 8 36 -1 55 -11 24 -6 28 153 148 143 107 165
127 165 151 0 26 -13 36 -25 18 -5 -9 -304 -238 -333 -255 -8 -5 -62 29 -155
100 -235 179 -290 225 -278 237 13 13 14 57 2 76 -11 17 6 31 194 173 77 58
160 122 184 141 l45 36 45 -38 c49 -40 287 -222 309 -235 8 -5 12 1 12 22 0
24 -10 36 -60 71 -73 52 -256 197 -264 210 -4 5 -2 12 4 16 14 9 13 58 -2 73
-9 9 -8 15 4 24 9 7 84 65 167 128 133 101 151 118 151 144 0 34 23 48 -199
-121 -89 -68 -164 -123 -167 -123 -9 0 -293 213 -373 280 -45 38 -60 55 -52
63 14 14 14 60 1 73 -13 13 14 38 185 167 77 57 160 121 185 141 25 20 49 36
54 36 5 0 39 -24 75 -53 88 -72 281 -217 286 -217 3 0 5 12 5 28 0 22 -14 36
-78 82 -139 99 -255 201 -243 213 14 14 14 64 0 72 -16 11 12 36 173 157 132
99 148 114 148 140 l0 30 -24 -19 c-14 -10 -96 -73 -184 -139 l-159 -121 -164
123 c-218 165 -273 214 -260 227 14 14 14 64 1 72 -17 10 -2 24 148 136 75 57
168 128 205 158 l68 54 38 -29 c21 -16 102 -77 180 -136 78 -60 144 -108 146
-108 3 0 5 11 5 25 0 20 -21 40 -102 101 -57 42 -130 100 -163 127 -33 28 -62
53 -64 54 -3 2 1 9 7 15 15 15 16 65 2 73 -17 10 -1 25 166 150 137 104 154
119 154 145 0 29 -3 27 -141 -78 -77 -59 -159 -121 -183 -139 l-43 -32 -154
117 c-255 193 -279 214 -268 233 12 24 11 63 -2 76 -8 8 31 43 138 124 81 62
178 137 215 167 73 58 69 58 138 2 25 -21 102 -81 173 -133 124 -94 127 -95
127 -68 0 24 -13 38 -77 86 -43 32 -117 89 -164 128 -84 67 -86 70 -76 97 8
21 8 36 -1 54 -11 25 -7 28 121 126 73 55 147 112 165 126 24 18 32 33 32 55
l0 31 -48 -39 c-26 -22 -109 -86 -184 -142 l-137 -102 -128 97 c-70 54 -167
129 -214 167 -84 67 -86 70 -76 97 8 21 8 36 -1 54 -11 24 -7 29 151 147 89
68 186 143 215 167 l52 45 53 -42 c43 -34 228 -176 299 -229 16 -12 18 -10 18
17 0 25 -10 37 -72 82 -40 28 -114 85 -164 126 -90 72 -92 74 -81 103 8 21 8
35 0 53 -11 25 -6 29 152 149 141 106 164 127 164 151 1 26 -12 36 -23 18 -6
-8 -305 -238 -333 -254 -12 -8 -160 98 -351 252 -64 51 -90 77 -82 85 13 13
13 56 0 76 -11 17 -21 8 170 152 74 56 161 124 193 150 l58 48 32 -26 c18 -14
95 -73 172 -131 77 -58 146 -110 153 -116 9 -7 12 -2 12 20 0 25 -12 38 -87
93 -49 35 -122 92 -165 127 -75 62 -76 64 -65 93 9 24 9 35 -2 52 -15 25 -24
17 182 170 118 89 137 107 137 130 0 34 -7 35 -39 4 -34 -31 -320 -246 -327
-246 -9 0 -266 193 -357 268 -55 46 -75 68 -68 75 14 14 14 64 0 72 -16 11 12
37 161 148 74 56 164 125 199 154 l64 53 51 -43 c47 -40 275 -213 304 -230 8
-6 12 0 12 20 -1 24 -16 39 -98 100 -165 122 -235 184 -223 196 14 14 14 64 0
72 -16 11 13 38 174 158 131 99 147 113 147 140 0 27 -2 28 -19 16 -10 -8 -91
-69 -180 -137 -90 -68 -168 -121 -175 -119 -18 7 -257 188 -349 264 -57 47
-76 68 -68 76 14 14 14 60 0 74 -11 11 31 48 231 198 58 43 123 94 144 112 22
18 44 33 49 33 5 0 30 -17 56 -39 60 -50 300 -231 307 -231 3 0 4 12 2 27 -2
21 -26 45 -111 109 -163 123 -220 175 -208 187 14 14 14 60 0 74 -12 12 40 56
224 192 86 64 97 76 97 102 l0 31 -24 -19 c-13 -10 -95 -73 -183 -139 l-160
-122 -139 105 c-77 57 -172 131 -212 164 -72 59 -72 60 -66 99 4 24 2 45 -5
53 -14 17 -5 26 159 147 69 52 155 118 193 148 60 49 69 53 86 41 11 -8 90
-68 176 -134 86 -66 160 -121 166 -123 5 -2 9 8 9 22 0 19 -14 35 -57 68 -115
84 -273 212 -273 219 0 4 5 11 10 14 6 3 10 13 10 21 0 11 -15 14 -61 14 -65
0 -62 2 -42 -46 5 -13 -85 -89 -274 -230 -70 -53 -133 -100 -139 -105 -10 -8
-248 165 -382 279 -47 39 -52 48 -47 73 l7 29 -61 0 -61 0 12 -26 c12 -25 10
-29 -32 -67 -56 -50 -372 -288 -383 -289 -11 -1 -325 235 -385 288 -40 36 -43
41 -33 67 l11 27 -60 0 c-61 0 -68 -6 -51 -39 11 -19 -13 -40 -268 -233 -94
-72 -159 -114 -165 -109 -6 4 -69 52 -141 107 -215 162 -277 215 -271 230 3 8
9 21 12 29 5 12 -5 15 -55 15 -46 0 -61 -3 -61 -14 0 -8 4 -18 10 -21 5 -3 10
-10 10 -14 0 -8 -138 -121 -235 -192 -33 -24 -90 -68 -127 -97 l-68 -53 -122
93 c-216 162 -309 240 -303 255 3 7 8 20 11 28 5 12 -5 15 -55 15 -46 0 -61
-3 -61 -14 0 -8 5 -18 10 -21 6 -3 10 -10 10 -14 0 -10 -86 -80 -282 -229
l-148 -112 -127 97 c-201 153 -303 235 -303 244 0 4 5 11 10 14 6 3 10 13 10
21 0 11 -15 14 -61 14 -50 0 -60 -3 -55 -15 3 -8 9 -21 12 -29 6 -14 -76 -83
-302 -253 l-122 -92 -132 100 c-188 141 -300 231 -300 240 0 4 4 11 10 14 6 3
10 13 10 21 0 11 -15 14 -61 14 -50 0 -60 -3 -55 -15 3 -8 9 -21 12 -29 6 -15
-71 -81 -273 -232 -70 -53 -133 -100 -139 -105 -10 -8 -248 165 -382 279 -47
39 -52 48 -47 73 l7 29 -61 0 -61 0 12 -26 c12 -25 10 -29 -32 -67 -46 -40
-373 -289 -383 -291 -8 -1 -333 244 -385 290 -40 36 -43 41 -33 67 l11 27 -61
0 c-64 0 -64 0 -48 -46 8 -22 -417 -349 -435 -335 -6 4 -69 52 -141 107 -215
162 -277 215 -271 230 3 8 9 21 12 29 5 12 -5 15 -55 15 -46 0 -61 -3 -61 -14
0 -8 4 -18 10 -21 6 -3 10 -10 10 -14 0 -8 -138 -121 -235 -192 -33 -24 -90
-68 -127 -97 l-68 -53 -122 93 c-216 162 -309 240 -303 255 3 7 8 20 11 28 5
12 -5 15 -55 15 -46 0 -61 -3 -61 -14 0 -8 5 -18 10 -21 6 -3 10 -10 10 -14 0
-10 -86 -80 -282 -229 l-148 -112 -127 97 c-201 153 -303 235 -303 244 0 4 5
11 10 14 6 3 10 13 10 21 0 11 -15 14 -61 14 -65 0 -62 2 -42 -46 4 -12 -95
-94 -303 -252 l-122 -91 -132 100 c-188 141 -300 231 -300 240 0 4 5 11 10 14
6 3 10 13 10 21 0 11 -15 14 -61 14 -50 0 -60 -3 -55 -15 3 -8 9 -21 12 -29 6
-15 -71 -81 -273 -232 -70 -53 -133 -100 -139 -105 -10 -8 -248 165 -382 279
-47 39 -52 48 -47 73 l7 29 -61 0 -61 0 12 -25z m1050 -108 c29 -24 121 -94
203 -156 83 -63 154 -118 159 -122 6 -5 4 -18 -4 -34 -10 -19 -11 -30 -2 -50
7 -14 12 -27 12 -29 0 -6 -176 -145 -306 -243 l-121 -91 -135 101 c-256 194
-308 239 -289 252 14 8 14 58 1 71 -13 13 0 25 195 172 88 66 174 132 190 146
17 14 33 25 37 26 3 0 30 -19 60 -43z m928 7 c25 -20 105 -82 179 -137 196
-147 202 -153 189 -183 -8 -18 -8 -31 0 -49 7 -14 12 -27 12 -29 0 -6 -122
-103 -282 -224 l-146 -111 -154 116 c-127 96 -200 153 -271 214 -5 3 -3 16 4
28 11 16 11 27 2 51 -11 30 -10 31 55 83 37 29 119 92 182 139 63 48 129 98
145 112 17 14 32 25 35 26 3 0 25 -16 50 -36z m940 0 c25 -20 90 -70 145 -112
55 -42 130 -100 167 -129 65 -52 66 -53 55 -83 -9 -23 -9 -35 1 -50 6 -11 12
-21 12 -23 0 -6 -129 -107 -283 -223 l-148 -112 -147 111 c-125 95 -245 189
-275 217 -4 4 -3 19 4 33 9 20 9 33 1 51 -13 30 -6 36 183 179 77 57 160 121
185 141 25 20 47 36 50 36 3 0 25 -16 50 -36z m959 -17 c36 -29 128 -99 203
-156 150 -112 165 -126 148 -136 -14 -9 -13 -58 2 -73 7 -7 8 -15 3 -20 -51
-44 -144 -116 -273 -214 l-154 -116 -122 91 c-233 175 -307 239 -300 256 9 20
10 61 1 81 -5 11 28 41 119 110 70 52 165 125 211 163 47 37 88 67 91 67 2 0
35 -24 71 -53z m954 -11 c45 -36 142 -110 215 -166 110 -84 131 -104 121 -116
-7 -9 -9 -29 -5 -53 6 -38 4 -41 -47 -84 -28 -25 -124 -99 -211 -165 l-160
-120 -175 133 c-97 73 -194 148 -215 167 -35 31 -38 36 -27 57 10 18 10 29 0
53 -10 26 -10 33 2 42 8 6 80 60 159 121 80 60 169 128 198 152 29 24 55 43
58 43 3 0 42 -29 87 -64z m911 21 c28 -24 122 -96 209 -161 86 -65 157 -122
157 -128 0 -5 -5 -18 -10 -28 -7 -13 -7 -28 1 -47 10 -26 8 -31 -28 -61 -57
-50 -383 -297 -389 -296 -10 2 -265 195 -347 263 -65 53 -77 68 -72 85 9 28 9
36 1 67 -7 24 4 34 166 157 95 72 189 144 208 161 19 17 39 30 44 31 5 0 32
-19 60 -43z m938 0 c29 -24 121 -94 203 -156 83 -63 154 -118 159 -122 6 -5 4
-18 -4 -34 -10 -19 -11 -30 -2 -50 7 -14 12 -27 12 -29 0 -6 -176 -145 -306
-243 l-121 -91 -139 105 c-76 57 -172 131 -212 164 -72 59 -72 60 -66 99 4 24
2 45 -5 53 -14 17 -8 23 194 175 88 66 174 132 190 146 17 14 33 25 37 26 3 0
30 -19 60 -43z m928 7 c25 -20 105 -82 179 -137 196 -147 202 -153 189 -183
-8 -18 -8 -31 0 -49 7 -14 12 -27 12 -29 0 -6 -122 -103 -282 -224 l-146 -111
-154 116 c-127 96 -200 153 -271 214 -5 3 -3 16 4 28 11 16 11 27 2 51 -11 30
-10 31 55 83 37 29 119 92 182 139 63 48 129 98 145 112 17 14 32 25 35 26 3
0 25 -16 50 -36z m940 0 c25 -20 90 -70 145 -112 55 -42 130 -100 167 -129 65
-52 66 -53 55 -83 -9 -23 -9 -35 1 -50 6 -11 12 -21 12 -23 0 -6 -129 -107
-283 -224 l-149 -111 -147 111 c-125 96 -246 191 -274 217 -4 4 -3 19 4 33 9
20 9 33 1 51 -13 30 -6 36 183 179 77 57 160 121 185 141 25 20 47 36 50 36 3
0 25 -16 50 -36z m959 -17 c36 -29 128 -99 203 -156 150 -112 165 -126 148
-136 -14 -9 -13 -58 2 -73 7 -7 8 -15 3 -20 -51 -44 -144 -116 -273 -214
l-154 -116 -122 91 c-233 175 -307 239 -300 256 9 20 10 61 1 81 -5 11 28 41
119 110 70 52 165 125 211 163 47 37 88 67 91 67 2 0 35 -24 71 -53z m920 15
c25 -21 122 -96 214 -166 138 -105 166 -130 156 -142 -7 -9 -9 -29 -5 -53 6
-38 4 -41 -47 -84 -28 -25 -124 -99 -211 -165 l-159 -120 -36 27 c-89 64 -320
242 -355 273 -35 31 -38 36 -27 57 10 18 10 29 0 53 -11 28 -10 32 12 49 13
11 85 65 159 121 74 56 159 122 188 145 29 24 55 43 59 43 3 0 26 -17 52 -38z
m945 -5 c28 -24 122 -96 209 -161 86 -65 157 -122 157 -128 0 -5 -5 -18 -10
-28 -7 -13 -7 -28 1 -47 10 -26 8 -31 -28 -61 -57 -50 -383 -297 -389 -296
-10 2 -265 195 -347 263 -65 53 -77 68 -72 85 9 28 9 36 1 67 -7 24 4 34 166
157 95 72 189 144 208 161 19 17 39 30 44 31 5 0 32 -19 60 -43z m-10790 -470
c28 -24 122 -96 209 -162 136 -102 158 -121 152 -139 -9 -29 -10 -47 -2 -72 8
-23 -49 -73 -298 -261 l-121 -90 -137 103 c-76 57 -171 131 -212 164 -75 61
-75 62 -69 101 4 23 2 44 -5 52 -14 18 -7 23 194 175 88 66 174 132 190 146
17 14 34 25 39 26 5 0 32 -19 60 -43z m962 -19 c44 -35 140 -108 212 -163 99
-74 131 -103 125 -115 -9 -20 -9 -61 1 -81 7 -17 -32 -51 -295 -251 l-125 -96
-162 122 c-217 164 -276 216 -263 229 14 14 14 60 0 74 -12 12 40 56 221 190
52 39 117 89 145 112 27 22 52 41 56 41 3 0 42 -28 85 -62z m921 14 c32 -26
112 -88 178 -137 179 -134 186 -141 173 -171 -8 -18 -8 -31 0 -49 7 -14 12
-27 12 -29 0 -10 -416 -326 -430 -326 -14 0 -298 215 -423 321 -5 3 -3 16 4
28 11 16 11 27 2 50 -13 36 -11 38 182 184 77 57 160 121 185 141 25 20 48 36
52 36 4 0 33 -22 65 -48z m938 0 c33 -27 123 -96 201 -154 153 -116 171 -133
154 -143 -14 -8 -13 -58 2 -73 6 -6 10 -13 7 -15 -2 -1 -31 -25 -64 -53 -96
-80 -354 -274 -365 -274 -11 0 -206 144 -343 254 -64 51 -86 74 -80 86 8 19 9
60 0 80 -5 11 28 41 119 110 70 52 165 125 211 163 47 37 88 67 92 67 3 0 33
-22 66 -48z m944 -5 c36 -29 128 -99 203 -156 150 -112 165 -126 148 -136 -13
-8 -13 -58 1 -72 13 -13 -42 -62 -260 -227 l-165 -124 -145 111 c-159 120
-281 217 -281 223 0 2 5 15 12 29 9 19 8 31 -1 52 -14 31 -33 13 169 165 74
56 159 122 188 145 29 24 55 43 59 43 3 0 36 -24 72 -53z m940 0 c36 -30 130
-102 209 -162 122 -93 142 -112 137 -129 -9 -27 -9 -46 0 -72 8 -24 -17 -46
-274 -242 l-145 -110 -175 133 c-97 73 -194 149 -216 168 -37 32 -39 36 -27
61 8 19 9 33 2 46 -5 10 -10 23 -10 28 0 5 78 68 173 140 94 72 188 144 207
161 19 17 39 30 44 31 5 0 39 -24 75 -53z m925 10 c28 -24 122 -96 209 -162
137 -102 158 -121 152 -139 -10 -28 -10 -57 -1 -77 7 -17 -68 -82 -299 -256
l-121 -90 -137 103 c-76 57 -171 131 -212 164 -75 61 -75 62 -69 101 4 23 2
44 -5 52 -14 18 -7 23 194 175 88 66 174 132 190 146 17 14 34 25 39 26 5 0
32 -19 60 -43z m913 19 c15 -13 109 -85 208 -161 125 -95 179 -142 176 -154
-6 -28 -5 -65 3 -82 7 -17 -32 -51 -295 -251 l-125 -96 -162 122 c-217 164
-276 216 -263 229 14 14 14 60 0 74 -12 12 40 56 221 190 52 39 117 89 145
112 27 22 53 41 57 41 3 0 19 -11 35 -24z m969 -24 c32 -26 113 -88 179 -137
179 -134 186 -141 173 -171 -8 -18 -8 -31 0 -49 7 -14 12 -27 12 -29 0 -10
-416 -326 -430 -326 -14 0 -298 215 -423 321 -5 3 -3 16 4 28 11 16 11 27 2
50 -13 36 -11 38 182 184 77 57 160 121 185 141 25 20 47 36 51 36 3 0 32 -21
65 -48z m939 0 c33 -27 123 -96 201 -154 153 -116 171 -133 154 -143 -14 -8
-13 -58 2 -73 6 -6 10 -13 7 -15 -2 -1 -31 -25 -64 -53 -96 -80 -354 -274
-365 -274 -11 0 -206 144 -343 254 -64 51 -86 74 -80 86 8 19 9 60 0 80 -5 11
28 41 119 110 70 52 165 125 211 163 47 37 88 67 92 67 3 0 33 -22 66 -48z
m944 -5 c36 -29 128 -99 203 -156 150 -112 165 -126 148 -136 -13 -8 -13 -58
1 -72 13 -13 -42 -62 -261 -226 l-164 -124 -145 110 c-159 121 -281 217 -281
223 0 2 5 15 12 29 9 19 8 31 -1 52 -14 31 -33 13 169 165 74 56 159 122 188
145 29 24 55 43 59 43 3 0 36 -24 72 -53z m940 0 c36 -30 130 -102 209 -162
122 -93 142 -112 137 -129 -9 -27 -9 -46 0 -72 8 -24 -17 -46 -274 -242 l-145
-110 -175 133 c-97 73 -194 149 -216 168 -37 32 -39 36 -27 61 8 19 9 33 2 46
-5 10 -10 23 -10 28 0 5 78 68 173 140 94 72 188 144 207 161 19 17 39 30 44
31 5 0 39 -24 75 -53z m925 10 c28 -24 122 -96 209 -162 137 -102 158 -121
152 -139 -10 -28 -10 -57 -1 -77 7 -17 -68 -82 -299 -256 l-121 -90 -137 103
c-76 57 -171 131 -212 164 -75 61 -75 62 -69 101 4 23 2 44 -5 52 -14 18 -7
23 194 175 88 66 174 132 190 146 17 14 34 25 39 26 5 0 32 -19 60 -43z
m-10790 -470 c28 -23 122 -96 209 -161 122 -92 156 -123 151 -135 -10 -21 -10
-61 0 -82 5 -12 -15 -33 -81 -86 -200 -158 -334 -255 -347 -250 -17 7 -250
183 -349 265 -57 46 -76 67 -68 75 14 14 14 60 0 74 -11 11 31 48 231 198 58
43 123 94 144 112 22 18 44 33 49 33 6 0 33 -19 61 -43z m943 -4 c33 -27 128
-99 212 -162 115 -87 150 -119 145 -130 -10 -20 -10 -62 0 -81 7 -18 -24 -45
-268 -230 -84 -63 -154 -109 -161 -106 -20 7 -319 235 -378 286 -34 30 -45 46
-38 53 14 14 14 64 0 72 -16 11 11 36 175 159 83 63 171 130 196 150 25 20 48
36 51 36 4 0 33 -21 66 -47z m966 -20 c46 -38 141 -111 211 -163 91 -69 124
-99 119 -110 -8 -19 -8 -61 0 -80 4 -11 -17 -34 -73 -78 -131 -105 -341 -262
-351 -262 -10 0 -273 198 -364 274 -36 30 -59 56 -56 65 6 27 5 65 -2 81 -5
11 29 42 125 115 72 55 167 128 211 163 44 34 83 62 87 62 4 0 46 -30 93 -67z
m897 31 c25 -20 108 -84 185 -141 171 -129 198 -154 185 -167 -13 -13 -13 -59
1 -73 8 -8 -11 -29 -68 -76 -91 -75 -331 -257 -349 -264 -6 -2 -76 44 -155
104 -237 178 -280 215 -273 233 10 20 10 61 0 81 -5 13 31 45 166 147 95 71
189 144 208 161 19 16 40 30 45 30 6 1 30 -15 55 -35z m959 -17 c36 -29 128
-99 203 -156 150 -112 165 -126 148 -136 -13 -8 -13 -58 1 -72 8 -8 -9 -27
-62 -71 -95 -78 -340 -263 -357 -269 -12 -5 -150 95 -340 246 -78 62 -92 78
-87 95 9 26 9 46 0 72 -5 17 22 42 194 173 111 84 203 157 207 162 10 17 27 9
93 -44z m954 -11 c45 -36 138 -107 207 -159 105 -79 125 -98 122 -118 -5 -40
-4 -53 3 -75 5 -17 -9 -33 -87 -95 -134 -107 -323 -249 -333 -249 -9 0 -200
142 -333 248 -79 63 -93 78 -87 96 9 27 9 45 0 72 -6 19 10 34 110 110 65 49
159 121 209 161 50 40 95 72 99 73 5 0 45 -29 90 -64z m911 21 c28 -23 122
-96 209 -161 122 -92 156 -123 151 -135 -10 -20 -10 -61 -1 -81 6 -12 -16 -35
-80 -86 -171 -137 -334 -256 -347 -251 -17 7 -257 188 -349 264 -57 47 -76 68
-68 76 14 14 14 60 0 74 -11 11 31 48 231 198 58 43 123 94 144 112 22 18 44
33 49 33 6 0 33 -19 61 -43z m943 -4 c33 -27 128 -99 212 -162 115 -87 150
-119 145 -130 -10 -20 -10 -62 0 -81 7 -18 -24 -45 -268 -230 -84 -63 -154
-109 -161 -106 -20 7 -319 235 -378 286 -34 30 -45 46 -38 53 14 14 14 64 0
72 -16 11 11 36 175 159 83 63 171 130 196 150 25 20 48 36 51 36 4 0 33 -21
66 -47z m966 -20 c46 -38 141 -111 211 -163 91 -69 124 -99 119 -110 -8 -19
-8 -61 0 -80 4 -11 -17 -34 -73 -78 -131 -105 -341 -262 -351 -262 -10 0 -273
198 -364 274 -36 30 -59 56 -56 65 6 27 5 65 -2 81 -5 11 29 42 125 115 72 55
167 128 211 163 44 34 83 62 87 62 4 0 46 -30 93 -67z m897 31 c25 -20 108
-84 185 -141 171 -129 198 -154 185 -167 -13 -13 -13 -59 1 -73 7 -7 -7 -25
-48 -60 -67 -58 -350 -272 -368 -280 -7 -2 -77 44 -156 104 -237 178 -280 215
-273 233 10 20 10 61 0 81 -5 13 31 45 166 147 95 71 189 144 208 161 19 16
40 30 45 30 6 1 30 -15 55 -35z m959 -17 c36 -29 128 -99 203 -156 150 -112
165 -126 148 -136 -13 -8 -13 -58 1 -72 8 -8 -7 -26 -53 -64 -88 -73 -363
-279 -373 -279 -9 0 -189 135 -333 249 -78 62 -92 78 -87 95 9 26 9 46 0 72
-5 17 22 42 194 173 111 84 203 157 207 162 10 17 27 9 93 -44z m954 -11 c45
-36 138 -107 207 -159 105 -79 125 -98 122 -118 -5 -40 -4 -53 3 -75 5 -17 -9
-33 -87 -95 -132 -106 -323 -249 -332 -249 -8 0 -262 189 -366 272 l-54 44 -1
63 -1 63 114 87 c63 47 156 118 206 158 50 40 95 72 99 73 5 0 45 -29 90 -64z
m-10790 -470 c45 -35 138 -107 207 -159 93 -70 124 -99 122 -113 -6 -30 -5
-57 2 -79 6 -17 -9 -33 -81 -91 -116 -92 -331 -254 -339 -254 -9 0 -263 191
-357 268 -61 50 -75 67 -67 78 7 7 10 32 8 55 l-3 43 145 110 c80 61 173 132
205 158 33 27 64 48 68 48 5 0 45 -29 90 -64z m930 6 c40 -31 134 -104 210
-161 105 -80 136 -108 131 -120 -8 -17 -9 -54 -3 -82 5 -18 -52 -67 -264 -228
-83 -63 -155 -110 -162 -107 -17 6 -299 221 -373 284 -38 32 -50 48 -43 55 14
14 14 64 0 72 -16 11 13 37 176 160 83 62 170 129 195 149 25 20 49 36 53 36
5 0 41 -26 80 -58z m919 15 c29 -23 114 -89 188 -145 202 -152 183 -134 169
-165 -10 -21 -10 -33 0 -53 6 -15 10 -27 9 -28 -2 -1 -28 -23 -58 -48 -122
-102 -365 -278 -376 -274 -18 7 -321 237 -376 285 -44 39 -46 43 -35 71 9 24
9 35 -2 51 -7 12 -9 25 -4 29 4 4 76 59 158 121 83 62 174 132 203 156 30 24
58 43 63 43 4 0 32 -19 61 -43z m945 -5 c32 -26 120 -95 196 -152 77 -58 146
-111 155 -118 12 -9 13 -15 4 -24 -15 -15 -16 -60 -1 -75 8 -8 -11 -29 -68
-76 -92 -76 -331 -257 -349 -264 -7 -2 -79 46 -161 108 -214 163 -269 210
-264 228 6 28 5 66 -3 82 -5 13 31 45 166 147 95 72 189 144 208 161 19 17 40
30 47 31 7 0 38 -21 70 -48z m923 12 c25 -20 108 -84 185 -141 171 -129 198
-154 185 -167 -13 -13 -13 -59 1 -73 8 -8 -7 -25 -52 -63 -78 -65 -364 -280
-372 -280 -8 0 -261 190 -360 269 -65 53 -78 73 -56 87 11 6 9 33 -5 65 -5 12
35 48 171 152 98 75 192 147 208 161 17 14 35 25 40 26 6 0 30 -16 55 -36z
m967 -22 c39 -31 133 -104 208 -160 119 -90 136 -107 130 -125 -9 -28 -9 -46
0 -73 7 -22 -50 -71 -298 -259 -106 -79 -121 -87 -139 -76 -25 16 -331 250
-378 289 -32 27 -34 31 -22 56 9 20 9 33 1 47 -6 11 -8 26 -6 33 3 7 83 71
178 144 96 72 188 142 204 156 17 14 35 25 40 26 6 0 42 -26 82 -58z m946 -6
c45 -35 138 -107 207 -159 93 -70 124 -99 122 -113 -6 -30 -5 -57 2 -79 6 -17
-9 -33 -81 -91 -116 -92 -331 -254 -339 -254 -9 0 -263 191 -357 268 -61 50
-75 67 -67 78 7 7 10 32 8 55 l-3 43 145 110 c80 61 173 132 205 158 33 27 64
48 68 48 5 0 45 -29 90 -64z m930 6 c40 -31 134 -104 210 -161 105 -80 136
-108 131 -120 -10 -20 -10 -62 0 -82 5 -11 -15 -32 -76 -81 -206 -162 -341
-259 -353 -254 -17 6 -299 221 -373 284 -38 32 -50 48 -43 55 14 14 14 64 0
72 -16 11 13 37 176 160 83 62 170 129 195 149 25 20 49 36 53 36 5 0 41 -26
80 -58z m919 15 c29 -23 114 -89 188 -145 202 -152 183 -134 169 -165 -10 -21
-10 -33 0 -53 6 -15 10 -27 9 -28 -2 -1 -28 -23 -58 -48 -122 -102 -365 -278
-376 -274 -18 7 -321 237 -376 285 -44 39 -46 43 -35 71 9 24 9 35 -2 51 -7
12 -9 25 -4 29 4 4 76 59 158 121 83 62 174 132 203 156 30 24 58 43 63 43 4
0 32 -19 61 -43z m945 -5 c32 -26 120 -95 196 -152 77 -58 146 -111 155 -118
12 -9 13 -15 4 -24 -15 -15 -16 -60 -1 -75 8 -8 -11 -29 -68 -76 -91 -75 -331
-257 -349 -264 -6 -2 -79 46 -160 108 -211 160 -270 210 -265 228 6 28 5 66
-3 82 -5 13 31 45 166 147 95 72 189 144 208 161 19 17 40 30 47 31 7 0 38
-21 70 -48z m923 12 c25 -20 108 -84 185 -141 171 -129 198 -154 185 -167 -13
-13 -13 -59 1 -73 8 -8 -7 -25 -52 -63 -78 -65 -364 -280 -372 -280 -8 0 -261
190 -360 269 -65 53 -78 73 -56 87 11 6 9 33 -5 65 -6 13 33 47 171 152 98 75
192 147 208 161 17 14 35 25 40 26 6 0 30 -16 55 -36z m967 -22 c39 -31 133
-104 208 -160 119 -90 136 -107 130 -125 -9 -28 -9 -46 0 -73 7 -22 -50 -71
-298 -259 -106 -79 -121 -87 -139 -76 -25 16 -331 250 -378 289 -32 27 -34 31
-22 56 9 20 9 33 1 47 -6 11 -8 26 -6 33 3 7 83 71 178 144 96 72 188 142 204
156 17 14 35 25 40 26 6 0 42 -26 82 -58z m946 -6 c45 -36 138 -107 207 -159
94 -71 124 -99 122 -113 -6 -30 -5 -57 2 -79 6 -17 -9 -33 -81 -91 -116 -92
-331 -254 -339 -254 -9 0 -263 191 -357 268 -61 50 -75 67 -67 78 7 7 10 32 8
55 l-3 43 145 110 c80 61 173 132 205 158 33 27 64 48 68 48 5 0 45 -29 90
-64z m-10583 -629 c93 -71 124 -99 122 -113 -4 -22 -4 -51 0 -80 2 -15 -14
-34 -57 -70 -81 -68 -353 -274 -361 -274 -9 0 -260 189 -357 268 -61 50 -75
67 -67 78 7 7 10 32 8 55 l-3 43 115 88 c63 48 157 121 209 162 l94 74 86 -68
c47 -38 142 -111 211 -163z m3685 53 c204 -153 196 -145 189 -192 -4 -23 -2
-43 5 -52 10 -12 -6 -29 -86 -93 -132 -106 -328 -253 -337 -253 -7 0 -255 187
-363 273 -52 42 -63 55 -57 72 9 27 9 57 0 77 -6 12 22 39 129 120 76 56 171
131 214 164 l76 62 40 -33 c22 -17 108 -83 190 -145z m959 -16 c128 -98 170
-136 168 -150 -5 -36 -4 -59 2 -79 6 -17 -6 -31 -61 -75 -98 -79 -352 -270
-359 -270 -7 0 -205 149 -337 254 -80 63 -88 72 -81 95 3 14 6 31 5 36 -6 60
-8 57 93 134 54 42 149 115 210 162 l111 86 39 -31 c21 -17 115 -90 210 -162z
m986 -37 c93 -71 124 -99 122 -113 -4 -22 -4 -51 0 -80 2 -15 -14 -34 -57 -70
-77 -65 -354 -274 -361 -274 -9 0 -263 192 -357 268 -61 50 -75 67 -67 78 7 7
10 32 8 55 l-3 43 115 88 c63 48 157 121 209 162 l94 74 86 -68 c47 -38 142
-111 211 -163z m3685 53 c204 -153 196 -145 189 -192 -4 -23 -2 -43 5 -52 10
-12 -6 -29 -86 -93 -132 -106 -328 -253 -337 -253 -7 0 -255 187 -363 273 -52
42 -63 55 -57 72 9 27 9 57 0 77 -6 12 22 39 129 120 76 56 171 131 214 164
l76 62 40 -33 c22 -17 108 -83 190 -145z m959 -16 c128 -98 170 -136 168 -150
-5 -36 -4 -59 2 -79 6 -17 -6 -31 -61 -75 -98 -79 -352 -270 -359 -270 -7 0
-205 149 -337 254 -80 63 -88 72 -81 95 3 14 6 31 5 36 -6 60 -8 57 93 134 54
42 149 115 210 162 l111 86 39 -31 c21 -17 115 -90 210 -162z m-9610 177 c4
-5 96 -78 206 -162 110 -83 200 -153 200 -155 0 -2 -5 -15 -12 -29 -8 -18 -8
-31 0 -50 10 -22 7 -28 -36 -66 -56 -49 -357 -278 -375 -285 -12 -4 -266 183
-384 282 -49 42 -51 45 -40 74 9 24 9 35 -2 52 -15 25 -34 7 169 160 74 56
159 121 188 145 53 43 76 51 86 34z m980 -34 c28 -24 112 -89 186 -145 202
-152 184 -135 169 -160 -11 -17 -11 -28 -2 -52 11 -30 11 -31 -65 -94 -92 -75
-330 -256 -346 -262 -11 -4 -285 197 -383 281 -48 42 -51 47 -41 70 8 19 8 31
0 50 -7 14 -12 28 -12 30 0 1 78 62 173 133 94 72 188 144 207 161 19 17 41
30 49 31 8 0 37 -19 65 -43z m957 -15 c83 -65 327 -253 343 -264 7 -5 7 -11
-2 -20 -15 -15 -16 -60 -1 -75 13 -13 -46 -63 -267 -229 -96 -72 -158 -113
-166 -108 -24 14 -293 218 -353 268 -36 30 -59 56 -56 65 4 20 4 61 0 85 -3
15 34 47 157 140 88 67 180 138 205 158 24 21 49 38 55 38 6 0 45 -26 85 -58z
m3752 0 c40 -31 134 -104 210 -161 75 -57 137 -105 137 -107 0 -2 -5 -15 -12
-29 -8 -18 -8 -31 0 -50 10 -22 7 -28 -36 -66 -56 -49 -357 -278 -375 -284
-12 -5 -219 146 -364 265 -71 58 -71 60 -60 90 9 24 9 35 -2 52 -15 25 -34 7
169 160 74 56 159 121 188 145 30 24 58 43 64 43 5 0 42 -26 81 -58z m921 15
c28 -24 112 -89 186 -145 202 -152 184 -135 169 -160 -11 -17 -11 -28 -2 -52
11 -30 11 -31 -65 -94 -92 -75 -330 -256 -346 -262 -11 -4 -285 197 -383 281
-48 42 -51 47 -41 70 8 19 8 31 0 50 -7 14 -12 28 -12 30 0 1 78 62 173 133
94 72 188 144 207 161 19 17 41 30 49 31 8 0 37 -19 65 -43z m957 -15 c83 -65
327 -253 343 -264 7 -5 7 -11 -2 -20 -15 -15 -16 -64 -2 -73 15 -10 7 -18 -93
-98 -195 -155 -326 -249 -339 -241 -24 14 -292 218 -353 268 -36 30 -59 56
-56 65 2 9 3 27 3 41 0 14 -1 34 -3 44 -3 15 34 47 157 140 88 67 180 138 205
158 24 21 49 38 55 38 6 0 45 -26 85 -58z m-8747 -598 c130 -100 170 -136 168
-150 -6 -30 -5 -57 2 -79 5 -16 -6 -30 -56 -70 -103 -82 -358 -275 -363 -275
-7 0 -229 167 -343 258 -73 58 -91 77 -82 87 6 8 10 33 8 56 l-3 43 115 88
c63 48 158 122 209 162 l95 75 39 -32 c22 -18 117 -91 211 -163z m969 -23 c76
-57 140 -107 142 -112 3 -4 0 -19 -7 -34 -9 -21 -9 -31 1 -48 13 -19 10 -25
-32 -63 -40 -36 -341 -267 -375 -288 -12 -7 -199 127 -364 261 -75 62 -76 64
-65 93 9 24 9 35 -2 52 -12 19 -11 23 10 40 13 10 92 69 174 132 83 62 170
129 194 149 l45 35 70 -57 c39 -31 133 -103 209 -160z m1654 171 c32 -26 129
-101 216 -166 86 -65 157 -120 157 -122 0 -2 -6 -13 -12 -24 -10 -15 -10 -27
-1 -49 12 -34 11 -36 -112 -132 -187 -147 -305 -230 -317 -223 -33 21 -309
232 -360 276 -53 45 -56 51 -46 74 8 18 8 31 -1 50 -6 14 -9 29 -6 34 3 4 83
67 178 138 94 72 188 144 207 161 19 16 36 30 37 31 1 0 28 -21 60 -48z m1078
-107 c227 -172 235 -179 224 -196 -12 -19 -11 -63 2 -76 12 -12 -43 -58 -278
-237 -93 -71 -147 -105 -155 -100 -18 11 -280 209 -356 269 -50 40 -61 54 -56
70 9 27 9 57 0 77 -6 12 22 39 129 120 76 56 171 131 214 164 73 59 77 61 97
45 12 -9 93 -70 179 -136z m992 -41 c177 -134 179 -137 166 -167 -6 -12 -7
-31 -2 -42 14 -35 10 -40 -58 -96 -90 -72 -352 -269 -358 -269 -6 0 -218 160
-343 259 -69 54 -82 69 -76 86 6 20 7 43 2 79 -2 14 24 40 96 95 54 42 149
115 210 162 l111 86 50 -39 c28 -22 118 -92 202 -154z m937 0 c130 -100 170
-136 168 -150 -6 -30 -5 -57 2 -79 5 -16 -6 -30 -56 -70 -105 -84 -358 -275
-364 -275 -7 0 -227 166 -342 258 -73 58 -91 77 -82 87 6 8 10 33 8 57 l-3 42
135 104 c74 56 168 129 209 162 l75 59 39 -32 c22 -18 117 -91 211 -163z m969
-23 c76 -57 140 -107 142 -112 3 -4 0 -19 -7 -34 -9 -21 -9 -31 1 -48 13 -19
10 -25 -32 -63 -40 -36 -341 -267 -375 -288 -12 -7 -199 127 -364 261 -75 62
-76 64 -65 93 9 24 9 35 -2 52 -12 19 -11 23 10 40 13 10 85 64 159 120 74 56
161 124 194 150 l59 47 71 -57 c39 -32 133 -104 209 -161z m1654 171 c32 -26
119 -94 193 -150 202 -152 184 -135 169 -160 -11 -17 -11 -28 -2 -52 11 -29
10 -31 -65 -93 -161 -132 -352 -268 -364 -261 -33 21 -309 232 -360 276 -53
45 -56 51 -46 74 8 18 8 31 -1 50 -6 14 -9 29 -6 34 3 4 83 67 178 138 94 72
188 144 207 161 19 16 36 30 37 31 1 0 28 -22 60 -48z m1059 -93 c256 -196
253 -194 243 -210 -12 -19 -11 -63 2 -76 12 -12 -43 -58 -278 -237 -94 -71
-146 -105 -155 -100 -27 17 -296 220 -353 268 -43 36 -59 55 -57 70 6 40 5 61
-2 78 -6 12 22 39 129 120 76 56 172 131 213 165 74 59 77 61 98 45 12 -10 84
-65 160 -123z m1011 -55 c83 -63 156 -121 162 -128 8 -9 8 -22 3 -37 -5 -13
-6 -33 -1 -44 14 -35 10 -40 -58 -96 -90 -72 -352 -269 -358 -269 -6 0 -269
198 -362 273 -52 42 -63 55 -57 72 6 20 7 43 2 79 -2 14 24 40 96 95 54 42
149 115 210 162 l111 86 50 -39 c28 -22 118 -92 202 -154z m937 0 c130 -100
170 -136 168 -150 -6 -30 -5 -57 2 -79 5 -16 -6 -30 -56 -70 -105 -84 -358
-275 -364 -275 -7 0 -227 166 -342 258 -73 58 -91 77 -82 87 6 8 10 33 8 56
l-3 43 115 88 c63 48 158 122 209 162 l95 75 39 -32 c22 -18 117 -91 211 -163z
m-9610 177 c4 -5 96 -78 206 -161 110 -84 200 -154 200 -156 0 -2 -6 -13 -12
-24 -10 -15 -10 -27 -1 -50 11 -29 9 -32 -40 -74 -52 -43 -340 -265 -365 -280
-12 -7 -235 153 -379 273 -60 49 -61 51 -50 81 9 23 9 35 -1 50 -6 11 -12 22
-12 24 0 2 78 62 173 134 94 72 188 144 207 161 35 30 64 39 74 22z m5685 -44
c36 -30 130 -102 209 -162 78 -59 142 -109 142 -111 0 -3 -6 -13 -12 -24 -10
-15 -10 -27 -1 -50 11 -29 9 -32 -40 -74 -52 -43 -340 -265 -365 -280 -13 -8
-234 151 -379 272 -60 50 -61 52 -50 82 9 23 9 35 -1 50 -6 11 -12 22 -12 24
0 2 78 62 173 134 94 72 188 144 207 161 19 17 41 30 49 31 8 0 44 -24 80 -53z
m-6857 -608 c86 -65 159 -123 163 -128 3 -6 1 -20 -6 -32 -8 -16 -8 -28 1 -48
11 -24 9 -29 -33 -67 -40 -36 -341 -267 -374 -287 -12 -8 -160 98 -351 252
-64 51 -90 77 -82 85 13 13 13 56 0 76 -11 17 -21 8 170 152 74 57 162 124
194 150 l59 47 51 -41 c28 -22 122 -94 208 -159z m961 -18 c76 -57 140 -107
142 -112 3 -4 0 -19 -7 -34 -9 -21 -9 -31 1 -48 13 -19 10 -24 -30 -60 -43
-39 -292 -230 -357 -275 l-33 -24 -117 89 c-64 48 -161 123 -214 165 -96 77
-96 78 -85 108 9 24 9 35 -2 51 -16 26 -28 15 164 160 83 62 174 132 203 156
l54 43 71 -58 c40 -32 134 -104 210 -161z m711 176 c28 -24 124 -98 214 -166
89 -67 162 -124 162 -127 0 -2 -6 -13 -12 -24 -10 -15 -10 -27 -1 -50 11 -29
10 -31 -65 -93 -43 -34 -139 -109 -215 -166 l-137 -103 -153 115 c-84 63 -181
138 -214 166 -60 49 -61 51 -50 81 9 24 9 35 -1 51 -7 11 -10 24 -7 28 3 5 83
68 178 139 94 72 188 144 207 161 19 16 37 30 39 31 2 0 27 -19 55 -43z m943
-5 c32 -26 129 -101 215 -165 152 -115 157 -119 146 -143 -9 -19 -9 -33 -1
-55 11 -28 9 -31 -60 -87 -168 -136 -358 -273 -370 -265 -60 37 -417 318 -417
328 0 3 5 14 12 24 9 15 9 25 0 46 -7 15 -10 30 -7 35 3 5 76 62 162 127 86
65 180 137 208 160 27 24 51 43 52 43 1 0 28 -21 60 -48z m1084 -111 c223
-169 220 -166 213 -213 -4 -23 -2 -43 5 -52 9 -11 -7 -28 -81 -88 -191 -152
-339 -259 -351 -251 -17 10 -280 209 -355 268 -50 40 -61 54 -56 70 7 22 8 49
2 79 -2 15 26 41 112 108 63 48 158 121 210 162 91 71 96 73 116 57 12 -9 95
-72 185 -140z m965 -21 c94 -71 177 -136 183 -144 10 -11 10 -20 1 -36 -9 -17
-9 -29 1 -51 7 -18 8 -33 3 -38 -103 -85 -377 -295 -411 -315 -12 -6 -139 85
-351 253 -75 59 -82 68 -76 91 7 24 7 35 2 74 -2 14 27 43 107 105 61 46 155
120 210 162 l100 78 30 -24 c16 -14 107 -83 201 -155z m946 -5 c97 -74 179
-139 183 -144 3 -6 1 -20 -6 -32 -8 -16 -8 -28 1 -48 11 -24 9 -29 -33 -67
-40 -36 -341 -267 -374 -287 -12 -8 -160 98 -351 252 -64 51 -90 77 -82 85 13
13 13 56 0 76 -11 17 -21 8 170 152 74 57 162 124 194 150 l59 47 31 -25 c17
-14 110 -86 208 -159z m981 -34 c76 -57 140 -107 142 -112 3 -4 0 -19 -7 -34
-9 -21 -9 -31 1 -48 13 -19 10 -24 -30 -60 -43 -39 -292 -230 -357 -275 l-33
-24 -117 89 c-64 48 -161 123 -214 165 -96 77 -96 78 -85 108 9 24 9 35 -2 51
-16 26 -28 15 164 160 83 62 174 132 203 156 l54 43 71 -58 c40 -32 134 -104
210 -161z m711 176 c28 -24 124 -98 214 -166 89 -67 162 -124 162 -127 0 -2
-6 -13 -12 -24 -10 -15 -10 -27 -1 -50 11 -29 10 -31 -65 -93 -43 -34 -139
-109 -215 -166 l-137 -103 -153 115 c-84 63 -181 138 -214 166 -60 49 -61 51
-50 81 9 24 9 35 -1 51 -7 11 -10 24 -7 28 3 5 83 68 178 139 94 72 188 144
207 161 19 16 37 30 39 31 2 0 27 -19 55 -43z m943 -5 c32 -26 129 -101 215
-165 152 -115 157 -119 146 -143 -9 -19 -9 -33 -1 -55 11 -29 10 -30 -80 -102
-196 -156 -338 -258 -350 -250 -60 37 -417 318 -417 328 0 3 5 14 12 24 9 15
9 25 0 46 -7 15 -10 30 -7 35 3 5 76 62 162 127 86 65 180 137 208 160 27 24
51 43 52 43 1 0 28 -21 60 -48z m1084 -111 c223 -169 220 -166 213 -213 -4
-23 -2 -43 5 -52 9 -11 -7 -28 -81 -88 -191 -152 -339 -259 -351 -251 -17 10
-280 209 -355 268 -50 40 -61 54 -56 70 7 22 8 49 2 79 -2 15 26 41 112 108
63 48 158 121 210 162 91 71 96 73 116 57 12 -9 95 -72 185 -140z m985 -37
c178 -133 179 -135 164 -164 -9 -17 -9 -29 1 -51 7 -18 8 -33 3 -38 -103 -85
-377 -295 -411 -315 -12 -6 -139 85 -351 253 -75 59 -82 68 -76 91 7 24 7 35
2 74 -2 14 27 43 107 105 61 46 155 120 210 162 l99 77 51 -40 c27 -22 118
-91 201 -154z m-10961 -339 c28 -22 111 -87 186 -143 163 -121 164 -123 149
-153 -9 -16 -9 -28 0 -48 11 -24 9 -29 -35 -68 -40 -37 -336 -264 -371 -286
-8 -5 -59 28 -141 89 -223 168 -304 237 -293 248 14 14 13 73 -1 82 -13 8 -19
3 171 146 74 56 161 124 193 150 50 42 61 47 75 36 10 -7 40 -31 67 -53z
m1112 -132 c178 -134 178 -134 163 -164 -9 -16 -9 -28 0 -48 11 -24 9 -29 -32
-65 -23 -21 -120 -97 -215 -168 l-171 -130 -124 93 c-67 51 -164 126 -215 167
-87 70 -91 75 -81 98 9 19 9 33 1 54 -11 29 -10 29 151 151 88 68 185 142 214
166 l54 43 51 -41 c29 -23 120 -93 204 -156z m756 139 c40 -31 134 -104 210
-161 76 -58 141 -109 144 -114 3 -5 0 -14 -6 -20 -14 -14 -14 -54 -1 -62 6 -3
10 -10 10 -15 0 -11 -122 -111 -293 -239 l-137 -103 -143 108 c-78 59 -174
134 -214 166 -70 57 -71 58 -60 88 9 23 9 35 -1 51 -7 11 -10 24 -7 28 3 5 83
68 178 139 94 72 188 144 207 161 19 16 36 30 38 31 2 0 36 -26 75 -58z m921
15 c28 -24 78 -63 111 -88 33 -24 106 -79 162 -122 98 -75 102 -79 91 -103 -9
-19 -9 -33 -1 -55 11 -29 10 -30 -80 -102 -51 -41 -147 -115 -215 -166 l-123
-92 -117 87 c-149 112 -299 231 -308 245 -3 6 -1 16 5 22 14 14 14 50 0 64 -6
6 -9 16 -5 21 3 5 86 71 183 145 98 75 192 147 208 161 17 14 32 25 34 26 2 0
27 -19 55 -43z m943 -5 c32 -26 129 -101 215 -165 152 -115 157 -119 146 -143
-9 -19 -9 -33 -1 -54 11 -28 9 -31 -55 -83 -185 -148 -364 -277 -375 -270 -28
17 -268 201 -340 260 -60 49 -77 69 -71 81 8 18 8 43 2 76 -2 15 26 41 112
108 63 48 158 121 210 162 52 41 96 75 97 75 1 1 28 -20 60 -47z m1098 -122
c97 -74 183 -140 192 -147 12 -9 13 -18 6 -40 -6 -17 -7 -38 -1 -52 5 -13 7
-27 6 -31 -8 -21 -405 -323 -423 -323 -10 0 -244 173 -367 272 -45 36 -56 50
-52 66 7 22 8 50 2 79 -2 14 25 41 107 105 61 46 155 120 210 162 96 75 100
77 121 61 12 -9 101 -78 199 -152z m800 105 c28 -22 111 -87 186 -143 163
-121 164 -123 149 -153 -9 -16 -9 -28 0 -48 11 -24 9 -29 -37 -69 -42 -39
-337 -265 -369 -285 -8 -5 -59 28 -141 89 -223 168 -304 237 -293 248 13 13
13 69 0 82 -7 7 34 43 121 109 72 55 170 130 217 168 71 57 87 65 101 55 9 -7
39 -31 66 -53z m1112 -132 c178 -134 178 -134 163 -164 -9 -16 -9 -28 0 -48
11 -24 9 -29 -32 -65 -23 -21 -120 -97 -215 -168 l-172 -129 -123 92 c-68 51
-164 126 -215 167 -87 70 -91 75 -81 98 9 19 9 33 1 54 -11 29 -11 29 151 152
88 67 185 141 214 165 l54 43 51 -41 c29 -23 120 -93 204 -156z m756 139 c40
-31 134 -104 210 -161 76 -58 141 -109 144 -114 3 -5 0 -14 -6 -20 -14 -14
-14 -54 -1 -62 6 -3 10 -10 10 -15 0 -11 -122 -111 -293 -239 l-137 -103 -143
108 c-78 59 -174 134 -214 166 -70 57 -71 58 -60 88 9 23 9 35 -1 51 -7 11
-10 24 -8 28 3 5 83 67 178 139 95 72 189 144 208 161 19 17 36 30 38 31 2 0
36 -26 75 -58z m921 15 c28 -24 78 -63 111 -88 33 -24 106 -79 162 -122 98
-75 102 -79 91 -103 -9 -19 -9 -33 -1 -55 11 -29 10 -30 -80 -102 -51 -41
-147 -115 -215 -166 l-123 -92 -117 87 c-149 112 -299 231 -308 245 -3 6 -1
16 5 22 6 6 11 20 11 32 0 12 -5 26 -11 32 -6 6 -9 16 -5 21 3 5 86 71 183
145 98 75 192 147 208 161 17 14 32 25 34 26 2 0 27 -19 55 -43z m943 -5 c32
-26 129 -101 215 -165 152 -115 157 -119 146 -143 -9 -19 -9 -33 -1 -54 11
-28 9 -31 -55 -83 -185 -148 -364 -277 -375 -270 -28 17 -268 201 -340 260
-60 49 -77 69 -71 81 8 18 8 43 2 76 -2 15 26 41 112 108 63 48 158 121 210
162 52 41 96 75 97 75 1 1 28 -20 60 -47z m1098 -122 c97 -74 183 -140 192
-147 12 -9 13 -18 6 -40 -6 -17 -7 -38 -1 -52 5 -13 7 -27 6 -31 -8 -21 -405
-323 -423 -323 -11 0 -268 190 -365 271 -30 25 -57 47 -59 49 -2 1 2 16 8 32
10 22 10 34 1 51 -15 29 -13 32 154 158 78 58 168 127 200 153 58 47 60 48 82
31 12 -9 101 -78 199 -152z m951 -10 c94 -71 177 -136 183 -144 10 -11 10 -20
1 -37 -9 -16 -9 -28 0 -48 11 -24 9 -29 -37 -69 -43 -39 -337 -265 -370 -285
-8 -5 -57 26 -140 89 -225 171 -304 237 -293 248 13 13 13 69 0 82 -7 7 34 43
121 109 72 55 170 130 217 168 l85 67 31 -25 c17 -14 108 -83 202 -155z
m-10946 -351 c25 -20 109 -84 186 -143 168 -126 169 -127 154 -157 -9 -16 -9
-28 0 -48 11 -24 9 -29 -32 -65 -23 -21 -120 -97 -215 -168 l-172 -129 -128
97 c-70 54 -167 129 -215 167 -81 66 -86 71 -75 94 8 18 8 32 0 54 l-11 29
161 122 c89 67 186 142 215 166 46 37 56 41 70 30 10 -7 37 -29 62 -49z m929
8 c36 -29 128 -99 203 -156 156 -117 166 -127 150 -143 -15 -15 -16 -55 -2
-63 6 -3 10 -10 10 -15 0 -11 -122 -111 -292 -238 l-137 -103 -123 92 c-68 51
-164 126 -215 167 -87 70 -91 75 -81 98 9 19 9 33 1 55 l-11 29 135 103 c74
56 169 130 212 164 42 34 78 62 80 62 2 1 34 -23 70 -52z m955 -12 c44 -36
140 -110 213 -165 l131 -99 -11 -31 c-9 -23 -9 -35 1 -50 6 -11 12 -21 12 -24
0 -6 -170 -141 -308 -245 l-123 -92 -142 107 c-190 144 -287 223 -287 234 0 5
5 12 10 15 14 8 13 48 -2 63 -17 17 -7 26 185 171 95 71 186 141 202 155 17
14 32 25 34 26 2 0 40 -29 85 -65z m910 22 c28 -24 78 -63 111 -88 33 -24 106
-79 162 -122 98 -75 102 -79 91 -103 -9 -19 -9 -33 -1 -54 11 -28 9 -31 -55
-83 -37 -29 -134 -104 -215 -166 l-148 -112 -137 103 c-225 169 -294 228 -286
247 8 17 8 42 2 75 -2 15 25 41 112 108 63 49 158 122 210 163 52 40 97 74 99
74 2 1 27 -18 55 -42z m1116 -136 c138 -106 197 -158 190 -165 -13 -13 -13
-69 0 -82 7 -7 -24 -38 -97 -95 -179 -141 -316 -242 -328 -242 -12 0 -317 231
-386 292 -38 34 -41 39 -29 60 9 18 9 29 1 49 -15 33 -11 37 173 176 83 62
171 130 196 149 37 30 47 34 62 24 9 -7 107 -81 218 -166z m925 9 c97 -74 184
-140 192 -147 13 -10 14 -17 4 -42 -10 -23 -10 -34 0 -52 11 -21 8 -27 -37
-67 -43 -38 -338 -265 -369 -284 -8 -5 -74 39 -166 109 -259 195 -269 204
-262 233 7 31 7 39 -1 70 -6 23 6 34 120 120 69 52 165 125 211 162 84 67 86
68 108 50 12 -9 102 -78 200 -152z m786 118 c35 -29 126 -99 201 -156 162
-123 163 -124 148 -153 -9 -16 -9 -28 0 -48 11 -24 9 -29 -32 -65 -23 -21
-120 -97 -215 -168 l-172 -129 -128 97 c-70 54 -167 129 -215 167 -81 66 -86
71 -75 94 8 18 8 32 0 54 l-11 29 176 134 c98 74 193 148 212 165 19 16 37 30
41 31 3 0 34 -24 70 -52z m938 -1 c36 -29 128 -99 203 -156 156 -117 166 -127
150 -143 -15 -15 -16 -55 -2 -63 6 -3 10 -10 10 -15 0 -11 -122 -111 -292
-238 l-137 -103 -123 92 c-68 51 -164 126 -215 167 -87 70 -91 75 -81 98 9 19
9 33 1 55 -11 29 -11 30 104 117 64 48 159 122 212 164 53 42 98 77 100 77 2
1 34 -23 70 -52z m955 -12 c44 -36 140 -110 213 -165 l131 -100 -11 -30 c-9
-23 -9 -35 1 -50 6 -11 12 -21 12 -24 0 -6 -170 -141 -308 -245 l-123 -92
-142 107 c-190 144 -287 223 -287 234 0 5 5 12 10 15 14 8 13 48 -2 63 -17 17
-7 26 185 171 95 71 186 141 202 155 17 14 32 25 34 26 2 0 40 -29 85 -65z
m910 22 c28 -24 78 -63 111 -88 33 -24 106 -79 162 -122 98 -75 102 -79 91
-103 -9 -19 -9 -33 -1 -54 11 -28 9 -31 -55 -83 -37 -29 -134 -104 -215 -166
l-148 -112 -137 103 c-225 169 -294 228 -286 247 8 17 8 42 2 75 -2 15 25 41
112 108 63 49 158 122 210 163 52 40 97 74 99 74 2 1 27 -18 55 -42z m971 -26
c39 -31 132 -103 208 -160 95 -72 134 -108 127 -115 -13 -13 -13 -69 0 -82 7
-7 -24 -38 -97 -95 -179 -141 -316 -242 -328 -242 -12 0 -317 231 -386 292
-38 34 -41 39 -29 60 9 18 9 29 1 48 -15 34 -15 35 169 173 85 65 175 133 200
153 24 20 49 33 55 30 5 -4 42 -32 80 -62z m1070 -101 c97 -74 184 -140 192
-147 13 -10 14 -17 4 -42 -10 -23 -10 -34 0 -52 11 -21 8 -27 -37 -67 -43 -38
-338 -265 -369 -284 -8 -5 -74 39 -166 109 -259 195 -269 204 -262 233 7 31 7
39 -1 70 -6 23 6 34 120 120 69 52 165 125 211 162 84 67 86 68 108 50 12 -9
102 -78 200 -152z m-10948 -348 c32 -26 120 -95 196 -152 77 -58 146 -110 154
-117 13 -10 14 -17 4 -42 -10 -23 -10 -34 0 -52 11 -21 8 -26 -32 -62 -24 -22
-116 -93 -204 -159 -88 -67 -165 -124 -171 -129 -10 -9 -264 176 -381 277 -51
43 -53 47 -47 85 4 23 2 44 -5 52 -12 15 28 49 249 214 52 39 111 85 130 101
19 17 38 31 42 32 4 0 33 -21 65 -48z m923 12 c25 -20 116 -90 202 -156 181
-138 185 -142 168 -163 -12 -14 -11 -30 4 -66 8 -19 -40 -60 -280 -242 l-141
-108 -149 113 c-82 62 -179 137 -216 167 -62 50 -66 55 -55 78 8 18 8 32 0 54
l-11 29 135 103 c74 56 169 130 212 164 42 34 78 62 81 62 3 1 25 -15 50 -35z
m934 3 c23 -19 109 -85 191 -147 203 -152 195 -145 182 -181 -9 -22 -9 -34 1
-49 6 -11 12 -21 12 -24 0 -6 -170 -141 -307 -244 l-123 -92 -144 109 c-157
118 -286 221 -286 227 0 2 6 13 12 24 10 15 10 27 1 49 -13 36 -22 28 192 189
88 66 174 132 190 146 17 14 32 25 34 26 2 0 22 -15 45 -33z m979 -31 c45 -36
141 -110 214 -165 l131 -100 -11 -31 c-9 -23 -9 -35 1 -50 6 -11 12 -21 12
-24 0 -5 -147 -122 -303 -240 l-127 -97 -178 135 c-97 74 -194 149 -215 168
-37 31 -38 34 -26 61 10 23 10 32 0 49 -17 27 -15 29 163 162 83 63 173 132
201 155 27 22 51 41 53 41 2 0 40 -29 85 -64z m911 21 c28 -24 78 -63 111 -88
196 -144 266 -202 256 -212 -14 -14 -14 -52 -1 -76 8 -15 -4 -29 -74 -85 -204
-161 -350 -265 -360 -257 -6 5 -69 52 -139 105 -142 106 -277 215 -277 222 0
3 5 15 11 26 8 15 8 27 0 46 -15 33 -11 37 173 176 83 62 171 130 196 150 25
20 47 36 49 36 2 0 27 -19 55 -43z m1110 -132 c181 -138 196 -152 190 -175 -8
-33 -9 -41 0 -66 8 -26 -20 -51 -258 -233 -99 -75 -163 -118 -170 -113 -6 5
-83 63 -171 129 -88 67 -179 138 -203 159 -40 36 -43 41 -33 67 8 19 7 34 -1
52 -14 31 -28 16 156 154 81 62 173 132 203 157 48 39 58 43 73 32 10 -7 107
-80 214 -163z m772 127 c32 -26 121 -94 197 -152 77 -58 146 -110 154 -117 13
-10 14 -17 4 -42 -10 -23 -10 -34 0 -52 11 -21 8 -26 -32 -62 -24 -22 -116
-93 -204 -159 -88 -67 -165 -124 -171 -129 -10 -9 -264 176 -381 277 -51 43
-53 47 -47 85 4 23 2 44 -5 52 -12 15 28 49 249 214 52 39 111 85 130 101 19
17 37 31 41 32 3 0 32 -21 65 -48z m924 12 c25 -20 116 -90 202 -156 181 -138
185 -142 168 -163 -12 -14 -11 -30 4 -66 8 -19 -40 -60 -280 -242 l-141 -108
-149 113 c-82 62 -179 137 -216 167 -62 50 -66 55 -55 78 8 18 8 32 0 54 l-11
29 135 103 c74 56 169 130 212 164 42 34 78 62 81 62 3 1 25 -15 50 -35z m934
3 c23 -19 109 -85 191 -147 203 -152 195 -145 182 -181 -9 -22 -9 -34 1 -49 6
-11 12 -21 12 -24 0 -6 -170 -141 -307 -244 l-123 -92 -144 109 c-157 118
-286 221 -286 227 0 2 6 13 12 24 10 15 10 27 1 49 -13 36 -22 27 192 189 88
67 174 132 190 146 17 14 32 25 34 26 2 0 22 -15 45 -33z m979 -31 c45 -36
141 -110 214 -165 l131 -100 -11 -31 c-9 -23 -9 -35 1 -50 6 -11 12 -21 12
-24 0 -5 -147 -122 -303 -240 l-127 -96 -123 91 c-237 179 -309 240 -302 258
16 36 17 52 5 66 -18 21 -11 28 168 162 85 64 175 134 201 155 25 21 47 38 49
38 2 0 40 -29 85 -64z m911 21 c28 -24 78 -63 111 -88 196 -144 266 -202 256
-212 -13 -13 -14 -52 -2 -76 8 -14 -5 -29 -72 -83 -183 -147 -351 -267 -361
-259 -6 5 -69 52 -139 105 -142 106 -277 215 -277 222 0 3 5 15 11 26 8 15 8
27 0 46 -15 33 -11 37 173 176 83 62 171 130 196 150 25 20 47 36 49 36 2 0
27 -19 55 -43z m1110 -132 c181 -138 196 -152 190 -175 -8 -33 -9 -41 0 -66 8
-26 -20 -51 -258 -233 -99 -75 -163 -118 -170 -113 -6 5 -83 63 -171 129 -88
67 -179 138 -203 159 -40 36 -43 41 -33 67 8 19 7 34 -1 52 -7 16 -8 29 -2 34
5 4 77 59 159 121 83 63 174 133 204 157 47 38 56 42 71 31 10 -7 107 -80 214
-163z m772 127 c32 -26 121 -94 197 -152 77 -58 146 -110 154 -117 13 -10 14
-17 4 -42 -10 -23 -10 -34 0 -52 11 -21 8 -26 -32 -62 -24 -22 -116 -93 -204
-159 -88 -67 -165 -124 -171 -129 -10 -8 -207 133 -376 270 -56 45 -57 47 -51
89 3 25 1 48 -6 56 -12 15 12 36 249 213 52 39 111 85 130 101 19 17 37 31 41
32 3 0 32 -21 65 -48z m-10789 -470 c32 -26 120 -95 196 -152 77 -58 146 -110
154 -117 13 -10 14 -17 4 -42 -10 -23 -10 -34 0 -52 15 -28 8 -34 -231 -216
-91 -69 -170 -130 -176 -134 -10 -8 -256 170 -376 274 -56 47 -58 50 -52 88 4
24 2 44 -5 53 -10 12 12 33 124 118 76 56 171 131 214 165 42 34 79 62 83 62
4 1 33 -20 65 -47z m938 0 c33 -26 116 -90 185 -142 175 -131 181 -137 168
-166 -8 -18 -8 -31 0 -49 7 -14 12 -27 12 -29 0 -6 -176 -145 -306 -243 l-122
-92 -149 112 c-153 116 -283 218 -283 224 0 2 6 12 12 23 10 15 10 27 1 50
-13 35 -26 23 218 208 74 55 148 112 164 126 17 14 32 25 35 26 3 0 32 -22 65
-48z m919 15 c23 -19 109 -85 191 -147 203 -152 195 -145 182 -181 -9 -23 -9
-34 2 -50 7 -12 9 -25 4 -29 -27 -26 -148 -121 -276 -218 l-147 -112 -148 112
c-166 126 -282 218 -282 224 0 2 6 13 12 24 10 15 10 27 1 50 -11 30 -10 31
55 83 37 29 103 80 147 113 44 32 109 83 144 111 36 29 67 53 69 53 3 0 23
-15 46 -33z m965 -20 c36 -30 130 -102 208 -160 149 -112 160 -122 143 -132
-14 -9 -13 -58 2 -73 7 -7 8 -15 3 -20 -56 -49 -146 -119 -273 -215 l-154
-116 -121 92 c-243 182 -309 238 -302 256 16 37 17 52 5 66 -18 21 -4 35 174
169 83 62 171 130 196 150 25 20 47 36 49 36 2 0 34 -24 70 -53z m925 10 c28
-24 78 -63 111 -88 212 -156 266 -201 254 -215 -7 -9 -9 -29 -5 -53 6 -38 4
-41 -47 -84 -133 -113 -371 -286 -381 -278 -6 5 -69 52 -139 105 -217 162
-279 216 -271 235 7 16 8 37 2 77 -2 18 31 48 177 159 99 76 193 148 208 161
16 13 31 24 34 24 3 0 29 -19 57 -43z m943 -4 c33 -27 128 -100 212 -163 129
-97 151 -117 145 -135 -6 -20 -7 -43 -2 -79 2 -13 -16 -35 -57 -69 -48 -39
-263 -204 -345 -264 -13 -9 -43 9 -175 109 -233 176 -268 206 -260 232 9 28 9
36 1 67 -7 24 4 34 166 157 95 71 189 144 208 161 19 16 38 30 41 31 4 0 33
-21 66 -47z m940 -1 c32 -26 120 -95 196 -152 77 -58 146 -110 154 -117 13
-10 14 -17 4 -42 -10 -23 -10 -34 0 -52 15 -28 8 -34 -231 -216 -91 -69 -170
-130 -176 -134 -6 -5 -70 36 -165 108 -222 168 -279 217 -268 234 12 19 11 63
-2 76 -8 8 27 40 126 114 75 57 171 132 214 166 42 34 79 62 83 62 4 1 33 -20
65 -47z m923 12 c25 -20 108 -84 185 -142 190 -142 196 -148 183 -178 -8 -18
-8 -31 0 -49 7 -14 12 -27 12 -29 0 -6 -176 -145 -308 -245 l-124 -93 -21 20
c-12 11 -78 61 -147 113 -106 79 -222 170 -253 199 -5 4 -3 17 4 29 11 16 11
27 2 51 -13 35 -26 23 218 208 74 55 148 112 164 126 17 14 32 25 35 26 3 0
25 -16 50 -36z m934 3 c23 -19 109 -85 191 -147 203 -152 195 -145 182 -181
-9 -23 -9 -34 2 -50 7 -12 9 -25 4 -29 -27 -26 -148 -121 -276 -218 l-147
-112 -148 112 c-166 126 -282 218 -282 224 0 2 6 13 12 24 10 15 10 27 1 50
-11 30 -10 31 55 83 37 29 112 87 167 129 55 42 120 92 145 112 25 20 47 36
49 36 2 0 22 -15 45 -33z m965 -20 c36 -30 130 -102 208 -161 78 -59 145 -111
148 -116 3 -5 1 -11 -5 -15 -14 -9 -13 -58 2 -73 7 -7 8 -15 3 -20 -56 -49
-146 -119 -273 -215 l-154 -116 -121 92 c-243 182 -309 238 -302 256 16 37 17
52 5 66 -18 21 -4 35 174 169 83 62 171 130 196 150 25 20 47 36 49 36 2 0 34
-24 70 -53z m950 -9 c43 -35 140 -110 215 -166 113 -85 135 -106 125 -118 -7
-9 -9 -29 -5 -54 6 -39 6 -40 -66 -99 -158 -130 -352 -270 -363 -262 -5 5 -68
52 -138 105 -217 162 -279 216 -271 235 7 16 8 37 2 77 -2 18 31 48 177 159
99 76 193 148 208 161 16 13 31 24 33 24 3 0 40 -28 83 -62z m918 15 c33 -27
128 -100 212 -163 129 -97 151 -117 145 -135 -6 -20 -7 -43 -2 -79 2 -13 -16
-35 -57 -69 -48 -39 -263 -204 -345 -264 -13 -9 -43 9 -175 109 -233 176 -268
206 -260 232 9 28 9 36 1 67 -7 24 4 34 166 157 95 71 189 144 208 161 19 16
38 30 41 31 4 0 33 -21 66 -47z m-10795 -466 c29 -23 114 -89 188 -145 205
-154 185 -135 171 -170 -10 -24 -10 -35 0 -53 11 -21 8 -26 -27 -57 -21 -19
-118 -94 -215 -167 l-175 -133 -160 120 c-87 66 -183 140 -211 165 -51 43 -53
46 -47 84 4 24 2 44 -5 53 -10 12 12 33 130 123 79 59 175 134 213 165 39 31
74 57 78 58 4 0 31 -19 60 -43z m971 -24 c46 -38 141 -111 211 -163 91 -69
124 -99 119 -110 -9 -20 -8 -61 1 -81 8 -18 -28 -49 -275 -236 l-147 -112
-153 116 c-85 64 -181 139 -214 167 -33 27 -62 52 -64 53 -3 2 1 9 7 15 15 15
16 65 2 73 -17 10 -2 23 183 164 95 72 186 141 202 155 17 14 33 25 36 26 4 0
45 -30 92 -67z m897 31 c25 -20 108 -84 185 -141 189 -143 196 -149 183 -179
-8 -18 -8 -31 1 -51 7 -14 8 -29 4 -33 -31 -29 -148 -121 -253 -199 -69 -52
-134 -102 -146 -112 -20 -19 -22 -18 -153 81 -153 115 -301 232 -301 237 0 2
6 12 12 23 10 15 10 27 1 50 -11 30 -10 31 55 83 37 29 112 87 167 129 55 42
120 92 145 112 25 20 47 36 50 36 3 0 25 -16 50 -36z m945 -5 c28 -23 93 -73
145 -112 52 -39 125 -94 162 -123 65 -53 66 -54 55 -84 -9 -24 -9 -35 2 -51 7
-12 9 -25 4 -28 -71 -61 -144 -118 -271 -214 l-154 -116 -146 111 c-160 121
-282 218 -282 224 0 2 5 15 12 29 8 18 8 31 0 49 -13 30 -6 37 173 171 66 49
147 111 179 137 33 27 63 48 66 48 3 0 28 -19 55 -41z m954 -12 c36 -30 122
-95 191 -147 164 -121 173 -130 159 -147 -7 -8 -9 -29 -5 -52 6 -38 4 -41 -47
-84 -28 -25 -124 -99 -211 -165 l-159 -120 -121 91 c-130 98 -306 237 -306
243 0 2 5 15 12 29 9 20 8 31 -2 50 -8 16 -10 29 -4 34 5 4 77 59 159 122 83
62 174 132 203 156 30 24 56 43 59 43 3 0 36 -24 72 -53z m944 -5 c40 -31 134
-104 210 -162 118 -88 137 -107 132 -124 -9 -27 -9 -46 0 -72 5 -17 -7 -32
-72 -85 -82 -68 -337 -261 -347 -263 -6 -1 -332 245 -391 297 -37 32 -39 36
-27 61 8 19 9 33 2 46 -5 10 -10 23 -10 28 0 6 78 69 173 140 94 72 188 144
207 161 19 16 39 30 43 31 5 0 41 -26 80 -58z m919 15 c29 -23 114 -89 188
-145 74 -56 146 -110 159 -121 22 -17 23 -21 12 -49 -10 -24 -10 -35 0 -53 11
-21 8 -26 -27 -57 -21 -19 -118 -94 -215 -167 l-175 -133 -160 120 c-87 66
-183 140 -211 165 -51 43 -53 46 -47 84 4 24 2 44 -5 53 -10 12 12 33 130 123
79 59 175 134 213 165 39 31 74 57 78 58 4 0 31 -19 60 -43z m971 -24 c46 -38
141 -111 211 -163 91 -69 124 -99 119 -110 -9 -20 -8 -61 1 -81 8 -18 -40 -59
-279 -239 l-143 -108 -154 115 c-84 64 -180 139 -213 167 -33 27 -62 52 -64
53 -3 2 1 9 7 15 15 15 16 65 2 73 -17 10 -2 23 183 164 95 72 186 141 202
155 17 14 33 25 36 26 4 0 45 -30 92 -67z m897 31 c25 -20 108 -84 185 -141
189 -143 196 -149 183 -179 -8 -18 -8 -31 1 -51 7 -14 8 -29 4 -33 -31 -29
-148 -121 -253 -199 -69 -52 -134 -102 -146 -112 -20 -19 -22 -17 -170 94
-155 117 -284 218 -284 224 0 2 6 12 12 23 10 15 10 27 1 49 -13 36 -12 37
167 171 69 52 152 116 185 142 33 26 62 48 65 48 3 0 25 -16 50 -36z m945 -5
c28 -23 93 -74 145 -112 52 -39 125 -94 162 -124 65 -52 66 -53 55 -83 -9 -24
-9 -35 2 -51 7 -12 9 -25 4 -28 -71 -61 -144 -118 -271 -214 l-154 -116 -146
111 c-160 121 -282 218 -282 224 0 2 5 15 12 29 8 18 8 31 0 49 -13 30 -6 37
173 171 66 49 147 111 179 137 33 27 63 48 66 48 3 0 28 -19 55 -41z m954 -12
c36 -30 122 -95 191 -147 164 -121 173 -130 159 -147 -7 -8 -9 -29 -5 -52 6
-38 4 -41 -47 -84 -28 -25 -124 -99 -211 -165 l-159 -120 -121 91 c-130 98
-306 237 -306 243 0 2 5 15 12 29 9 20 8 31 -2 50 -8 16 -10 29 -4 34 5 5 77
60 159 122 83 62 174 132 203 156 30 24 56 43 59 43 3 0 36 -24 72 -53z m944
-5 c40 -31 134 -104 210 -162 118 -88 137 -107 132 -124 -9 -27 -9 -46 0 -72
5 -17 -7 -32 -72 -85 -82 -68 -337 -261 -347 -263 -6 -1 -332 245 -391 297
-37 32 -39 36 -27 61 8 19 9 33 2 46 -5 10 -10 23 -10 28 0 6 78 69 173 140
94 72 188 144 207 161 19 16 39 30 43 31 5 0 41 -26 80 -58z m919 15 c29 -23
114 -89 188 -145 205 -154 185 -135 171 -170 -10 -24 -10 -35 0 -53 11 -21 8
-26 -27 -57 -21 -19 -118 -94 -215 -167 l-175 -133 -160 120 c-87 66 -183 140
-211 165 -51 43 -53 46 -47 84 4 24 2 44 -5 53 -10 12 12 33 130 123 79 59
175 134 213 165 39 31 74 57 78 58 4 0 31 -19 60 -43z m-10788 -470 c28 -24
112 -89 186 -145 201 -152 183 -134 169 -165 -9 -21 -10 -33 -1 -52 7 -14 12
-27 12 -29 0 -6 -122 -102 -281 -223 l-145 -110 -164 124 c-219 164 -274 213
-261 226 14 14 14 64 1 72 -17 10 -2 23 183 164 95 72 186 141 202 155 17 14
34 25 39 26 5 0 32 -19 60 -43z m949 -9 c36 -29 131 -102 211 -163 106 -80
144 -114 139 -125 -9 -20 -8 -61 0 -80 6 -12 -16 -35 -80 -86 -137 -110 -332
-254 -343 -254 -11 0 -269 194 -365 274 -33 28 -62 52 -64 53 -3 2 1 9 7 15
15 15 16 65 2 73 -17 10 1 27 154 143 78 58 168 127 201 154 33 26 63 48 67
48 3 0 36 -24 71 -52z m917 16 c25 -20 108 -84 185 -141 193 -146 195 -148
182 -184 -9 -23 -9 -34 2 -50 7 -12 9 -25 4 -28 -121 -103 -409 -321 -423
-321 -6 0 -76 50 -157 111 -243 184 -274 211 -267 229 9 19 10 60 1 80 -5 11
28 41 119 110 70 52 165 125 211 163 47 37 88 67 92 67 3 0 26 -16 51 -36z
m945 -5 c28 -23 93 -73 145 -112 181 -134 233 -178 221 -190 -14 -14 -14 -60
0 -74 13 -13 -46 -65 -262 -228 l-162 -123 -126 96 c-259 197 -302 234 -295
251 10 20 10 61 0 82 -5 11 30 43 145 130 84 63 179 135 212 162 33 26 62 47
66 47 3 0 29 -19 56 -41z m954 -12 c36 -29 122 -95 191 -146 164 -123 173
-131 159 -148 -7 -8 -9 -29 -5 -52 6 -39 6 -40 -69 -101 -41 -33 -136 -107
-212 -164 l-137 -103 -121 90 c-249 188 -306 238 -298 261 8 25 7 43 -2 72 -6
18 17 39 167 152 95 72 189 144 208 161 19 17 39 30 44 31 5 0 39 -24 75 -53z
m944 -5 c40 -31 134 -104 210 -162 118 -88 137 -107 132 -124 -9 -27 -9 -46 0
-72 7 -23 -43 -67 -301 -261 l-120 -91 -145 110 c-257 196 -282 218 -274 242
9 27 9 45 0 72 -6 19 17 39 172 157 98 75 192 147 208 161 17 14 34 25 38 26
5 0 41 -26 80 -58z m919 15 c29 -23 114 -89 188 -145 202 -152 183 -134 169
-165 -9 -21 -10 -33 -1 -52 7 -14 12 -27 12 -29 0 -6 -122 -102 -281 -223
l-145 -110 -164 124 c-219 164 -274 213 -261 226 14 14 14 64 1 72 -17 10 -2
23 183 164 95 72 186 141 202 155 17 14 33 25 37 26 4 0 31 -19 60 -43z m971
-24 c47 -38 142 -111 211 -163 91 -69 124 -99 119 -110 -9 -20 -8 -61 0 -80 6
-12 -16 -35 -80 -86 -137 -110 -332 -254 -343 -254 -11 0 -269 194 -365 274
-33 28 -62 52 -64 53 -3 2 1 9 7 15 15 15 16 65 2 73 -17 10 1 27 154 143 78
58 168 127 201 154 33 26 63 48 66 48 4 0 45 -30 92 -67z m897 31 c25 -20 108
-84 185 -141 193 -146 195 -148 182 -184 -9 -23 -9 -34 2 -50 7 -12 9 -24 4
-28 -4 -4 -33 -27 -63 -52 -97 -80 -350 -269 -360 -269 -6 0 -76 50 -157 111
-243 184 -274 211 -267 229 9 19 10 60 1 80 -5 11 28 41 119 110 70 52 165
125 211 163 47 37 88 67 92 67 3 0 26 -16 51 -36z m945 -5 c28 -23 93 -73 145
-112 181 -134 233 -178 221 -190 -14 -14 -14 -60 0 -74 13 -13 -46 -65 -262
-228 l-162 -123 -126 96 c-259 197 -302 234 -295 251 10 20 10 61 0 82 -5 11
30 43 145 130 84 63 179 135 212 162 33 26 62 47 66 47 3 0 29 -19 56 -41z
m954 -12 c36 -29 122 -95 191 -146 164 -123 173 -131 159 -148 -7 -8 -9 -29
-5 -52 6 -39 6 -40 -69 -101 -41 -33 -136 -107 -212 -164 l-137 -103 -121 90
c-249 188 -306 238 -298 261 8 25 7 43 -2 72 -6 18 17 39 167 152 95 72 189
144 208 161 19 17 39 30 44 31 5 0 39 -24 75 -53z m944 -5 c40 -31 134 -104
210 -162 118 -88 137 -107 132 -124 -9 -27 -9 -46 0 -72 7 -23 -42 -66 -301
-261 l-120 -91 -145 110 c-256 195 -282 218 -274 242 9 28 9 36 0 68 -6 25 3
34 172 161 98 75 192 147 208 161 17 14 34 25 38 26 5 0 41 -26 80 -58z
m-10794 -465 c36 -30 130 -102 209 -162 122 -93 141 -111 135 -129 -8 -25 -7
-43 2 -72 5 -17 -9 -33 -87 -95 -190 -151 -328 -251 -340 -246 -17 6 -262 191
-356 268 -60 50 -71 63 -61 75 7 9 9 29 5 54 l-6 39 136 103 c75 57 168 129
207 160 40 32 76 57 81 58 5 0 39 -24 75 -53z m925 10 c28 -24 122 -96 209
-161 123 -92 156 -122 151 -135 -10 -20 -10 -61 0 -81 7 -18 -36 -55 -273
-233 -79 -60 -149 -106 -155 -104 -18 7 -258 189 -349 264 -57 47 -76 68 -68
76 14 14 14 60 1 73 -13 13 14 38 185 167 77 57 160 121 185 141 25 20 49 36
54 36 5 0 32 -19 60 -43z m913 19 c15 -13 109 -85 208 -161 125 -95 179 -142
176 -154 -4 -21 -4 -62 0 -82 5 -18 -54 -68 -265 -228 -129 -97 -152 -111
-170 -103 -25 12 -290 215 -363 278 -48 41 -51 46 -41 69 8 19 8 32 -1 51 -9
21 -9 28 3 38 8 6 76 58 153 116 76 57 164 126 196 152 32 27 62 48 67 48 5 0
21 -11 37 -24z m953 -12 c25 -20 113 -87 196 -150 164 -123 191 -148 175 -159
-14 -8 -14 -58 0 -72 7 -7 -4 -23 -38 -53 -59 -51 -358 -279 -378 -286 -7 -3
-77 43 -161 106 -155 118 -274 212 -274 216 0 2 5 15 12 29 9 19 8 31 -1 52
-11 24 -10 29 11 45 13 10 84 64 158 120 74 56 159 122 188 145 29 24 56 43
60 43 4 0 27 -16 52 -36z m936 3 c21 -18 86 -69 144 -112 200 -150 242 -187
231 -198 -14 -14 -14 -60 0 -74 7 -7 -5 -23 -43 -55 -74 -63 -356 -278 -373
-284 -13 -6 -171 108 -348 250 -64 51 -86 74 -80 86 9 20 9 61 -1 81 -5 12 32
46 166 147 95 72 189 144 208 161 19 17 40 30 46 31 6 0 28 -15 50 -33z m989
-39 c51 -40 145 -113 210 -162 100 -76 116 -91 110 -110 -9 -26 -9 -45 0 -72
5 -17 -9 -33 -87 -95 -126 -102 -323 -249 -333 -249 -10 0 -199 142 -333 249
-78 62 -92 78 -87 95 7 22 8 35 3 75 -3 21 20 42 158 145 88 67 180 138 205
158 24 21 48 38 52 38 5 0 50 -33 102 -72z m859 63 c4 -5 96 -78 206 -162 174
-132 199 -155 193 -173 -8 -25 -7 -43 2 -72 5 -17 -9 -33 -87 -95 -190 -151
-328 -251 -340 -246 -17 6 -262 191 -357 269 -53 44 -70 63 -62 71 14 14 14
64 1 72 -17 10 -2 23 183 164 95 72 186 142 202 155 32 27 50 32 59 17z m980
-34 c28 -24 122 -96 209 -161 123 -92 156 -122 151 -135 -10 -20 -10 -61 0
-81 7 -18 -36 -55 -273 -233 -79 -60 -149 -106 -155 -104 -18 7 -258 189 -349
264 -57 47 -76 68 -68 76 14 14 14 60 1 73 -13 13 14 38 185 167 77 57 160
121 185 141 25 20 49 36 54 36 5 0 32 -19 60 -43z m913 19 c15 -13 109 -85
208 -161 125 -95 179 -142 176 -154 -2 -9 -3 -27 -3 -41 0 -14 1 -32 3 -41 5
-18 -54 -68 -265 -228 -129 -97 -152 -111 -170 -103 -25 12 -290 215 -363 278
-48 41 -51 46 -41 69 8 19 8 32 -1 51 -9 21 -9 28 3 38 8 6 76 58 153 116 76
57 164 126 196 152 32 27 62 48 67 48 5 0 21 -11 37 -24z m953 -12 c25 -20
113 -87 196 -150 164 -123 191 -148 175 -159 -14 -8 -14 -58 0 -72 7 -7 -4
-23 -38 -53 -59 -51 -358 -279 -378 -286 -7 -3 -77 43 -161 106 -155 118 -274
212 -274 216 0 2 5 15 12 29 9 19 8 31 -1 52 -11 24 -10 29 11 45 13 10 84 64
158 120 74 56 159 122 188 145 29 24 56 43 60 43 4 0 27 -16 52 -36z m936 3
c21 -18 86 -69 144 -112 200 -150 242 -187 231 -198 -14 -14 -14 -60 0 -74 7
-7 -5 -23 -43 -55 -74 -63 -356 -278 -373 -284 -13 -6 -171 108 -348 250 -64
51 -86 74 -80 86 9 20 9 61 -1 81 -5 12 32 46 166 147 95 72 189 144 208 161
19 17 40 30 46 31 6 0 28 -15 50 -33z m989 -39 c51 -40 145 -113 210 -162 100
-76 116 -91 110 -110 -9 -26 -9 -45 0 -72 5 -17 -9 -33 -87 -95 -126 -102
-323 -249 -333 -249 -10 0 -199 142 -333 249 -78 62 -92 78 -87 95 7 22 8 35
3 75 -3 21 20 42 158 145 88 67 180 138 205 158 24 21 48 38 52 38 5 0 50 -33
102 -72z m859 63 c4 -5 96 -78 206 -162 174 -132 199 -155 193 -173 -8 -25 -7
-43 2 -72 5 -17 -9 -33 -87 -95 -190 -151 -328 -251 -340 -246 -17 6 -262 191
-357 269 -53 44 -70 63 -62 71 14 14 14 60 0 74 -12 12 40 56 221 190 52 39
117 89 145 112 50 41 69 49 79 32z m-10735 -514 c36 -30 130 -102 209 -162
111 -84 142 -111 136 -124 -10 -20 -10 -61 0 -81 5 -12 -11 -30 -57 -67 -106
-85 -356 -273 -363 -273 -9 0 -293 213 -373 280 -45 38 -60 55 -52 63 14 14
14 60 1 73 -13 13 14 38 185 167 77 57 160 121 185 141 25 20 49 36 54 36 5 0
39 -24 75 -53z m925 10 c28 -23 122 -96 209 -161 122 -92 156 -123 151 -135
-8 -16 -9 -54 -3 -82 5 -18 -50 -65 -264 -228 -82 -62 -154 -110 -161 -108
-18 7 -257 188 -349 264 -57 47 -76 68 -68 76 15 15 14 60 -1 75 -9 9 -8 15 4
24 9 7 79 60 155 118 76 58 164 126 196 153 32 26 63 47 69 47 6 0 34 -19 62
-43z m938 0 c29 -24 121 -94 203 -156 83 -62 154 -117 158 -121 5 -4 3 -17 -4
-29 -11 -16 -11 -27 -2 -51 11 -29 10 -32 -40 -75 -104 -90 -372 -285 -384
-281 -18 7 -319 236 -375 285 -43 38 -46 44 -36 66 8 19 8 32 -1 52 -14 31
-33 13 169 165 74 56 159 122 188 145 29 24 57 43 61 43 5 0 33 -19 63 -43z
m929 7 c24 -20 111 -87 194 -149 163 -123 192 -149 176 -160 -14 -8 -14 -58 0
-72 7 -7 -5 -23 -43 -55 -74 -63 -356 -278 -373 -284 -7 -3 -79 44 -162 107
-210 159 -269 209 -264 228 6 28 5 66 -3 82 -5 12 32 46 166 147 95 72 189
144 208 161 19 17 40 30 47 31 6 0 31 -16 54 -36z m1011 -56 c62 -48 154 -118
203 -156 l90 -69 -3 -42 c-2 -23 1 -48 8 -55 8 -11 -6 -28 -67 -78 -94 -77
-348 -268 -357 -268 -8 0 -223 162 -339 254 -72 58 -87 74 -81 91 7 22 8 49 2
79 -2 15 36 49 163 145 92 69 184 141 205 158 22 18 44 32 51 30 7 -1 63 -41
125 -89z m913 20 c51 -40 145 -113 210 -162 100 -76 116 -91 110 -110 -9 -27
-9 -45 0 -72 5 -17 -8 -32 -82 -90 -156 -124 -329 -254 -338 -254 -9 0 -188
134 -333 249 -85 67 -93 77 -86 100 8 31 8 39 -1 68 -6 18 11 35 130 125 75
56 169 129 208 160 40 32 76 58 80 58 5 0 50 -33 102 -72z m914 19 c36 -30
130 -102 209 -162 111 -84 142 -111 136 -124 -10 -20 -10 -61 0 -81 5 -12 -11
-30 -57 -67 -106 -85 -356 -273 -363 -273 -9 0 -293 213 -373 280 -45 38 -60
55 -52 63 14 14 14 60 1 73 -13 13 14 38 185 167 77 57 160 121 185 141 25 20
49 36 54 36 5 0 39 -24 75 -53z m925 10 c28 -23 122 -96 209 -161 122 -92 156
-123 151 -135 -8 -16 -9 -54 -3 -82 5 -18 -50 -65 -264 -228 -82 -62 -154
-110 -161 -108 -18 7 -257 188 -349 264 -57 47 -76 68 -68 76 15 15 14 60 -1
75 -9 9 -9 15 -2 20 16 11 260 199 343 264 40 32 78 58 84 58 5 0 33 -19 61
-43z m938 0 c29 -24 121 -94 203 -156 83 -62 154 -117 158 -121 5 -4 3 -17 -4
-29 -11 -16 -11 -27 -2 -51 11 -29 10 -32 -40 -75 -104 -90 -372 -285 -384
-281 -18 7 -319 236 -375 285 -43 38 -46 44 -36 66 8 19 8 32 -1 52 -14 31
-33 13 169 165 74 56 159 122 188 145 29 24 57 43 61 43 5 0 33 -19 63 -43z
m928 7 c25 -20 113 -87 195 -149 163 -123 192 -149 176 -160 -14 -8 -14 -58 0
-72 7 -7 -5 -23 -43 -55 -74 -63 -356 -278 -373 -284 -7 -3 -79 44 -161 106
-244 185 -275 212 -268 230 10 20 10 61 0 81 -5 12 32 46 166 147 95 72 189
144 208 161 19 17 40 30 45 30 6 1 30 -15 55 -35z m1012 -56 c62 -48 154 -118
203 -156 l90 -69 -3 -42 c-2 -23 1 -48 8 -55 8 -11 -6 -28 -67 -78 -94 -77
-348 -268 -357 -268 -8 0 -223 162 -339 254 -72 58 -87 74 -81 91 6 20 7 44 2
79 -2 14 39 51 163 145 92 69 184 141 205 158 22 18 44 32 51 30 7 -1 63 -41
125 -89z m887 39 c36 -29 128 -100 205 -157 76 -57 140 -109 143 -116 2 -7 0
-22 -6 -33 -8 -14 -8 -27 1 -47 12 -25 10 -29 -22 -56 -47 -39 -353 -273 -378
-289 -18 -11 -33 -3 -139 77 -65 49 -160 122 -211 163 -85 67 -93 77 -86 100
8 31 8 39 -1 68 -6 18 11 35 130 125 75 56 169 129 208 160 40 32 76 58 81 58
5 0 39 -24 75 -53z m-10571 -638 c104 -79 132 -105 126 -118 -9 -19 -9 -49 0
-76 6 -17 -5 -30 -57 -72 -108 -86 -356 -273 -363 -273 -9 0 -205 147 -337
253 -78 63 -96 82 -87 92 6 8 10 33 8 56 l-3 43 115 88 c63 48 158 121 210
161 l95 74 80 -64 c44 -34 140 -108 213 -164z m3568 144 c43 -35 131 -102 194
-151 l115 -88 -3 -43 c-2 -23 1 -48 8 -55 8 -11 -6 -28 -67 -78 -94 -76 -348
-268 -357 -268 -7 0 -284 209 -361 274 -43 36 -59 55 -57 70 6 40 5 61 -2 77
-6 13 19 37 110 105 64 49 160 123 213 165 77 61 99 74 112 65 8 -6 51 -39 95
-73z m1081 -110 c177 -133 179 -136 166 -166 -6 -12 -7 -31 -2 -42 14 -36 10
-42 -78 -112 -116 -92 -331 -253 -337 -253 -7 0 -267 196 -359 270 -55 44 -67
58 -62 75 10 28 10 47 1 72 -6 19 10 35 135 130 79 59 175 133 213 164 l71 57
50 -40 c27 -22 118 -92 202 -155z m997 -47 c91 -68 116 -92 110 -105 -9 -19
-9 -49 0 -76 6 -17 -5 -30 -57 -72 -108 -86 -356 -273 -363 -273 -9 0 -205
147 -337 253 -78 63 -96 82 -87 92 6 8 10 33 8 56 l-3 43 115 88 c63 48 158
121 210 161 l94 74 97 -76 c53 -42 149 -116 213 -165z m3552 157 c43 -35 131
-102 194 -151 l115 -88 -3 -43 c-2 -23 1 -48 8 -55 8 -11 -6 -28 -67 -78 -97
-79 -348 -268 -357 -268 -8 0 -280 206 -361 274 -43 36 -59 55 -57 70 6 40 5
61 -2 77 -6 13 19 37 110 105 64 49 160 123 213 165 77 61 99 74 112 65 8 -6
51 -39 95 -73z m1081 -110 c177 -133 179 -136 166 -166 -6 -12 -7 -31 -2 -42
14 -36 10 -42 -78 -112 -116 -92 -331 -253 -337 -253 -7 0 -267 196 -359 270
-55 44 -67 58 -62 75 10 28 10 47 1 72 -6 19 10 35 135 130 79 59 175 133 213
164 l71 57 50 -40 c27 -22 118 -92 202 -155z m997 -47 c91 -68 116 -92 110
-105 -9 -19 -9 -49 0 -76 6 -17 -5 -30 -57 -72 -108 -86 -356 -273 -363 -273
-9 0 -205 147 -337 253 -78 63 -96 82 -87 92 6 8 10 33 8 56 l-3 43 115 88
c63 48 158 121 210 161 l94 74 97 -76 c53 -42 149 -116 213 -165z m-10541 170
c45 -36 138 -107 207 -159 94 -71 124 -99 121 -113 -4 -24 -4 -65 0 -85 3 -9
-20 -35 -56 -65 -61 -50 -329 -254 -353 -268 -13 -8 -144 86 -339 241 -100 80
-108 88 -93 98 14 9 13 58 -2 73 -9 9 -9 15 -2 20 16 11 260 199 343 264 40
32 78 58 83 58 5 0 46 -29 91 -64z m911 21 c28 -23 122 -96 209 -161 86 -65
157 -120 157 -122 0 -2 -6 -13 -12 -24 -10 -15 -10 -27 -1 -50 11 -29 10 -32
-41 -75 -97 -84 -371 -285 -382 -281 -16 6 -254 187 -346 262 -76 63 -76 64
-65 94 9 24 9 35 -2 52 -15 25 -36 6 184 172 83 63 166 128 185 145 19 16 41
30 49 31 8 0 37 -19 65 -43z m938 0 c29 -24 114 -89 188 -145 203 -153 184
-135 169 -160 -11 -17 -11 -28 -2 -52 11 -30 10 -32 -50 -82 -145 -120 -366
-280 -379 -272 -31 18 -327 246 -370 283 -43 38 -46 44 -36 66 8 19 8 32 0 50
-7 14 -12 27 -12 29 0 2 90 72 200 155 110 84 202 157 206 162 10 17 33 9 86
-34z m3781 -21 c45 -36 138 -107 207 -159 94 -71 124 -99 121 -113 -2 -11 -3
-30 -3 -44 0 -14 1 -32 3 -41 3 -9 -20 -35 -56 -65 -58 -48 -326 -252 -353
-268 -13 -8 -143 85 -339 241 -100 80 -108 88 -93 98 14 9 13 58 -2 73 -9 9
-9 15 -2 20 16 11 260 199 343 264 40 32 78 58 83 58 5 0 46 -29 91 -64z m911
21 c28 -23 122 -96 209 -161 86 -65 157 -120 157 -122 0 -2 -6 -13 -12 -24
-10 -15 -10 -27 -1 -50 11 -29 9 -31 -45 -78 -64 -55 -349 -271 -366 -278 -11
-4 -218 147 -358 262 -76 63 -76 64 -65 94 9 24 9 35 -2 52 -15 25 -36 6 184
172 83 63 166 128 185 145 19 16 41 30 49 31 8 0 37 -19 65 -43z m938 0 c29
-24 114 -89 188 -145 203 -153 184 -135 169 -160 -11 -17 -11 -28 -2 -52 11
-30 11 -32 -60 -90 -145 -119 -352 -270 -364 -265 -18 6 -319 235 -375 284
-43 38 -46 44 -36 66 8 19 8 32 0 50 -7 14 -12 27 -12 29 0 2 90 72 200 155
110 84 202 157 206 162 10 17 33 9 86 -34z m-7788 -613 c129 -99 170 -136 168
-150 -6 -29 -5 -57 2 -79 4 -16 -7 -30 -52 -66 -64 -52 -340 -261 -360 -273
-8 -5 -62 29 -155 100 -235 179 -290 225 -278 237 13 13 14 57 2 76 -10 16 5
30 179 161 69 52 152 115 184 141 l59 48 40 -32 c21 -18 116 -91 211 -163z
m949 -8 c86 -65 159 -122 162 -126 3 -5 0 -20 -6 -34 -9 -20 -9 -32 -1 -51 11
-23 7 -28 -66 -89 -69 -57 -311 -242 -341 -260 -11 -7 -211 137 -363 261 -75
62 -76 64 -65 93 9 23 9 35 -1 50 -6 11 -12 22 -12 24 0 2 71 57 158 122 86
65 183 140 215 167 l59 48 51 -44 c29 -24 123 -96 210 -161z m762 135 c39 -31
132 -103 208 -160 75 -57 137 -105 137 -108 0 -2 -6 -12 -12 -23 -10 -15 -10
-27 -1 -50 11 -30 10 -32 -50 -81 -144 -120 -367 -280 -379 -273 -25 15 -313
237 -365 280 -49 42 -51 45 -40 74 9 23 9 35 -1 50 -6 11 -12 22 -12 24 0 3
80 65 178 139 97 75 193 149 212 165 19 17 40 27 45 24 6 -3 42 -31 80 -61z
m1086 -113 c85 -65 165 -126 178 -136 21 -17 22 -21 10 -40 -11 -17 -11 -28
-2 -52 11 -29 10 -31 -65 -93 -165 -134 -352 -268 -364 -261 -34 21 -335 252
-375 288 -42 38 -45 44 -32 63 10 17 10 27 1 48 -7 15 -10 30 -7 34 2 5 82 67
177 139 95 72 189 144 208 160 l35 30 41 -31 c23 -18 110 -85 195 -149z m795
110 c32 -26 120 -94 194 -151 l135 -103 -3 -42 c-2 -24 1 -49 7 -56 9 -10 -10
-30 -81 -88 -108 -86 -335 -258 -343 -258 -5 0 -260 193 -363 275 -50 40 -61
54 -56 70 7 22 8 49 2 79 -2 15 36 50 168 150 95 72 189 145 210 162 43 36 34
39 130 -38z m1101 -125 c83 -62 156 -120 162 -127 8 -10 8 -22 1 -40 -7 -18
-7 -33 0 -46 5 -10 10 -23 10 -28 0 -5 -37 -38 -82 -74 -125 -98 -337 -258
-343 -258 -6 0 -268 197 -358 270 -60 48 -67 57 -61 80 7 24 7 35 2 74 -2 14
28 43 112 108 63 49 158 121 210 162 l95 73 50 -40 c28 -22 118 -91 202 -154z
m937 1 c131 -100 170 -135 168 -150 -6 -29 -5 -57 2 -79 4 -16 -7 -30 -52 -66
-64 -52 -340 -261 -360 -273 -8 -5 -62 29 -155 100 -235 179 -290 225 -278
237 13 13 14 57 2 76 -10 16 5 30 179 161 69 52 152 115 184 141 l59 48 40
-32 c22 -18 116 -91 211 -163z m949 -8 c86 -65 159 -122 162 -126 3 -5 0 -20
-6 -34 -9 -20 -9 -32 -1 -51 11 -23 7 -28 -66 -89 -69 -57 -311 -242 -341
-260 -11 -7 -211 137 -363 261 -75 62 -76 64 -65 93 9 23 9 35 -1 50 -6 11
-12 22 -12 24 0 2 71 57 158 122 86 65 183 140 215 167 l59 48 51 -44 c29 -24
123 -96 210 -161z m762 135 c39 -31 132 -103 208 -160 75 -57 137 -105 137
-108 0 -2 -6 -12 -12 -23 -10 -15 -10 -27 -1 -50 11 -30 10 -32 -50 -81 -144
-120 -367 -280 -379 -273 -25 15 -313 237 -365 280 -49 42 -51 45 -40 74 9 23
9 35 -1 50 -6 11 -12 22 -12 24 0 3 80 65 178 139 97 75 193 149 212 165 19
17 40 27 45 24 6 -3 42 -31 80 -61z m1086 -113 c85 -65 165 -126 178 -136 21
-17 22 -21 10 -40 -11 -17 -11 -28 -2 -52 11 -29 10 -31 -65 -93 -165 -134
-352 -268 -364 -261 -34 21 -335 252 -375 288 -42 38 -45 44 -32 63 10 17 10
27 1 48 -7 15 -10 30 -7 34 2 5 82 67 177 139 95 72 189 144 208 160 l35 30
41 -31 c23 -18 110 -85 195 -149z m795 110 c32 -26 120 -94 194 -151 l135
-103 -3 -42 c-2 -24 1 -49 7 -56 9 -10 -10 -30 -81 -88 -111 -89 -336 -258
-343 -258 -5 0 -260 193 -363 275 -50 40 -61 54 -56 70 7 22 8 49 2 80 -2 15
35 48 168 150 95 71 189 144 210 161 43 36 34 39 130 -38z m1101 -125 c83 -62
156 -120 162 -127 8 -10 8 -22 1 -40 -7 -18 -7 -33 0 -46 5 -10 10 -23 10 -28
0 -5 -37 -38 -82 -74 -125 -98 -337 -258 -343 -258 -6 0 -268 197 -358 270
-60 48 -67 57 -61 80 3 14 6 30 5 35 -6 60 -9 57 109 147 63 49 158 121 210
162 l95 73 50 -40 c28 -22 118 -91 202 -154z m-10790 -469 c178 -135 178 -135
163 -164 -9 -17 -9 -29 1 -51 6 -16 10 -31 8 -33 -2 -1 -40 -32 -84 -68 -76
-61 -306 -236 -332 -251 -8 -5 -70 36 -160 104 -251 190 -285 220 -272 235 7
9 9 29 5 52 -7 47 -6 48 189 194 77 58 160 122 184 141 l45 36 50 -41 c28 -22
119 -92 203 -154z m937 0 c130 -100 170 -136 168 -150 -6 -33 -6 -58 2 -76 6
-12 -11 -32 -71 -81 -72 -59 -312 -243 -340 -260 -13 -8 -154 94 -350 250 -88
71 -92 75 -81 99 9 19 9 33 1 54 -11 29 -11 29 146 147 86 65 182 139 214 166
l59 47 40 -32 c22 -18 118 -92 212 -164z m740 153 c28 -24 122 -96 209 -161
86 -65 160 -122 162 -127 3 -4 0 -17 -7 -28 -10 -16 -10 -27 -1 -51 11 -30 10
-32 -50 -81 -33 -28 -130 -103 -214 -166 l-153 -115 -137 103 c-76 57 -172
132 -215 166 -75 62 -76 64 -65 93 9 23 9 35 -1 50 -6 11 -12 22 -12 24 0 3
80 65 178 139 97 75 193 149 212 166 19 16 37 30 39 31 2 0 27 -19 55 -43z
m1115 -136 c111 -85 201 -156 201 -158 0 -2 -6 -12 -12 -23 -10 -15 -10 -27
-1 -50 11 -30 11 -31 -85 -108 -53 -42 -150 -117 -214 -165 l-117 -89 -33 24
c-68 46 -314 237 -358 276 -36 32 -43 43 -32 53 15 16 16 51 1 66 -6 6 -9 16
-5 21 3 5 83 68 178 140 95 72 189 144 208 161 29 24 38 27 52 18 9 -7 107
-81 217 -166z m768 131 c32 -26 119 -94 193 -150 191 -144 181 -135 170 -152
-13 -20 -13 -63 0 -76 8 -8 -18 -34 -82 -85 -191 -154 -339 -260 -351 -252
-33 20 -334 251 -374 287 -42 39 -45 44 -33 65 9 18 9 29 1 48 -8 18 -9 29 -1
38 6 7 88 72 183 144 95 71 186 141 202 155 17 14 31 25 32 26 1 0 28 -22 60
-48z m1101 -125 c100 -76 186 -144 192 -152 6 -8 7 -21 2 -36 -6 -14 -5 -35 1
-52 5 -16 6 -32 1 -36 -97 -79 -142 -115 -267 -210 -88 -67 -153 -109 -160
-105 -23 14 -292 218 -352 268 -43 36 -59 55 -57 70 4 25 4 54 0 80 -2 15 27
43 112 108 63 48 158 121 210 162 92 72 95 74 116 58 12 -9 103 -79 202 -155z
m969 -23 c178 -135 178 -135 163 -164 -9 -17 -9 -29 1 -51 6 -16 10 -31 8 -33
-2 -1 -40 -32 -84 -68 -76 -61 -306 -236 -332 -251 -8 -5 -70 36 -160 104
-250 190 -285 220 -272 235 7 8 9 31 5 56 l-6 43 107 80 c58 44 154 117 212
162 l105 81 51 -40 c27 -22 118 -92 202 -154z m926 9 c97 -74 179 -139 182
-143 3 -5 0 -20 -7 -35 -9 -21 -9 -31 0 -46 7 -10 12 -21 12 -24 0 -10 -357
-291 -417 -328 -13 -8 -154 94 -350 250 -88 71 -92 75 -81 99 9 19 9 33 1 54
-11 29 -11 29 146 147 86 65 182 139 214 165 l58 48 32 -25 c18 -15 112 -87
210 -162z m751 144 c28 -24 122 -96 209 -161 86 -65 160 -122 162 -127 3 -4 0
-17 -7 -28 -10 -16 -10 -27 -1 -51 11 -30 10 -32 -49 -81 -34 -28 -130 -102
-215 -166 l-153 -115 -138 103 c-75 57 -171 132 -214 166 -75 62 -76 64 -65
93 9 23 9 35 -1 51 -7 11 -10 24 -7 28 2 5 82 67 177 139 95 71 189 144 208
161 19 16 37 30 39 31 2 0 27 -19 55 -43z m1115 -136 c111 -85 201 -156 201
-158 0 -2 -6 -12 -12 -23 -10 -15 -10 -27 -1 -50 11 -30 11 -31 -85 -108 -53
-42 -150 -117 -214 -165 l-117 -89 -33 24 c-65 45 -314 236 -357 275 -40 36
-43 41 -30 60 10 17 10 27 1 48 -7 15 -10 30 -7 34 2 5 82 67 177 139 95 72
189 144 208 161 29 24 38 27 52 18 9 -7 107 -81 217 -166z m942 -3 c214 -163
200 -151 189 -168 -13 -20 -13 -63 0 -76 8 -8 -18 -34 -82 -85 -191 -154 -339
-260 -351 -252 -33 20 -334 251 -374 287 -42 39 -45 44 -33 65 9 18 9 29 1 48
-8 18 -9 29 -1 38 6 7 88 72 183 144 95 71 186 141 202 155 l30 24 41 -31 c23
-18 110 -85 195 -149z m927 9 c100 -76 186 -144 192 -152 6 -8 7 -21 2 -36 -6
-14 -5 -35 1 -52 5 -16 6 -32 1 -36 -5 -4 -34 -27 -64 -52 -140 -115 -352
-269 -363 -263 -23 13 -292 218 -352 268 -43 36 -59 55 -57 70 4 25 4 54 0 80
-2 15 27 43 112 108 63 48 158 122 210 162 92 73 95 74 116 58 12 -9 103 -79
202 -155z m969 -23 c178 -135 178 -135 163 -164 -9 -17 -9 -29 1 -51 6 -16 10
-31 8 -33 -2 -1 -40 -32 -84 -68 -76 -61 -306 -236 -332 -251 -8 -5 -70 36
-160 104 -250 190 -285 220 -272 235 7 8 9 31 5 56 l-6 43 107 80 c58 44 154
117 212 162 l105 81 51 -40 c27 -22 118 -92 202 -154z"/>
</g>
</svg>
